<svg xmlns="http://www.w3.org/2000/svg" viewBox="0 0 512 512" role="img" aria-labelledby="title desc">
  <title id="title">katoro Light</title>
  <desc id="desc">Pixel-art Kalender-Icon dunkel auf hellem Hintergrund.</desc>
  <rect width="512" height="512" fill="#f3f3f3"/>
  <g fill="#111118">
    <rect x="95" y="110" width="322" height="298"/>
    <rect x="115" y="135" width="282" height="248" fill="#f3f3f3"/>
    <rect x="150" y="90" width="28" height="45"/>
    <rect x="334" y="90" width="28" height="45"/>
    <rect x="145" y="86" width="38" height="9"/>
    <rect x="329" y="86" width="38" height="9"/>
    <rect x="115" y="165" width="282" height="13"/>
    <rect x="170" y="190" width="8" height="175"/>
    <rect x="225" y="190" width="8" height="175"/>
    <rect x="280" y="190" width="8" height="175"/>
    <rect x="335" y="190" width="8" height="175"/>
    <rect x="130" y="230" width="252" height="8"/>
    <rect x="130" y="275" width="252" height="8"/>
    <rect x="130" y="320" width="252" height="8"/>
    <rect x="130" y="190" width="252" height="8"/>
    <rect x="130" y="357" width="252" height="8"/>
    <rect x="130" y="198" width="8" height="159"/>
    <rect x="374" y="198" width="8" height="159"/>
  </g>
</svg>
