<?xml version="1.0" standalone="no"?>
<!DOCTYPE svg PUBLIC "-//W3C//DTD SVG 1.1//EN" "http://www.w3.org/Graphics/SVG/1.1/DTD/svg11.dtd">
<svg xmlns="http://www.w3.org/2000/svg">
  <defs>
    <font id="Orbitron" horiz-adv-x="640">
      <font-face font-family="Orbitron Black" units-per-em="1000" panose-1="0 0 0 0 0 0 0 0 0 0" ascent="1011" descent="-243" alphabetic="0" />
      <glyph unicode=" " glyph-name="gid152" horiz-adv-x="322" />
      <glyph unicode="!" glyph-name="gid127" horiz-adv-x="220" d="M58,201V720H211V201H58ZM58,0V153H211V0H58Z" />
      <glyph unicode="&quot;" glyph-name="gid150" horiz-adv-x="396" d="M217,505V706H369V505H217ZM36,505V706H188V505H36Z" />
      <glyph unicode="#" glyph-name="gid133" horiz-adv-x="797" d="M60,0l47,158H32V311H153l34,106H60V570H236l48,150H442L391,570H529l48,150H734L683,570h67V417H635L601,311H722V158H551L506,0H351l48,158H259L215,0H60ZM309,311H445l34,106H343L309,311Z" />
      <glyph unicode="$" glyph-name="gid156" horiz-adv-x="788" d="M311-98V0H182q-43,0-76.5,20T53,74T34,148v63H187V153H310V280H182q-42,0-75.5,19.5T53.5,353T34,430V572q0,42 19,75.5t52.5,53T182,720H311v98H464V720H592q43,0 76.5-19.5t52.5-53T740,572V508H587v59H464V433H592q43,0 76.5-20T721,360.5T740,290V148q0-40-19.5-74t-53-54T592,0H464V-98H311ZM187,433H310V567H187V433ZM464,153H587V280H464V153Z" />
      <glyph unicode="%" glyph-name="gid166" horiz-adv-x="966" d="M134,0V157L790,719h51V563L185,0H134Zm50,369q-40,0-70.5,17.5t-48,48T48,505v72q0,40 17.5,70.5t48,47.5T184,712h81q40,0 70.5-17t48-47.5T401,577V505q0-40-17.5-70.5t-48-48T265,369H184Zm22,126h36q14,0 23.5,9.5T275,528v26q0,14-9.5,23.5T242,587H206q-14,0-23.5-9.5T173,554V528q0-14 9.5-23.5T206,495ZM692,9q-39,0-69.5,17.5t-48,48T557,145v72q0,40 17.5,70.5t48,47.5T692,352h81q40,0 70.5-17t48-47.5T909,217V145q0-40-17.5-70.5t-48-48T773,9H692Zm23,125h36q14,0 23.5,9.5T784,167v27q0,14-9.5,23.5T751,227H715q-14,0-23.5-9.5T682,194V167q0-14 9.5-23.5T715,134Z" />
      <glyph unicode="&amp;" glyph-name="gid168" horiz-adv-x="938" d="M198,0q-39,0-72,19.5t-53,52T53,145V330q0,22 11,46t32,38q-7,17-7,53V574q0,41 20,74t53,52t72,19H587q35,0 66-15.5T705,661t27-61V512H579v53H242V457L606,274v95H759V208l115-68V-18L734,62q-21-28-53-45T614,0H198Zm8,153H494q11,0 20.5,0t19.5,0L223,310l-15,8q-2,0-2-8t0-39V153Z" />
      <glyph unicode="&apos;" glyph-name="gid151" horiz-adv-x="251" d="M59,504V706H212V504H59Z" />
      <glyph unicode="(" glyph-name="gid136" horiz-adv-x="294" d="M197,0q-40,0-73,20T71.5,73T52,145V575q0,40 19.5,73T124,700.5T197,720h66V567H205V153h58V0H197Z" />
      <glyph unicode=")" glyph-name="gid137" horiz-adv-x="297" d="M56,0V153h58V567H56V720h67q39,0 72-19.5T248,648t20-73V145q0-39-20-72T195,20T123,0H56Z" />
      <glyph unicode="*" glyph-name="gid132" horiz-adv-x="516" d="M191,261L66,351l69,93L25,479L72,627l109-37V706H335V590l110,37l47-148L382,444l69-93L328,261l-71,93l-66-93Z" />
      <glyph unicode="+" glyph-name="gid158" horiz-adv-x="455" d="M147,86V219H17V372H147V503H300V372H434V219H300V86H147Z" />
      <glyph unicode="," glyph-name="gid123" horiz-adv-x="243" d="M54-133V142H207V16q0-36-20-67t-55-53T54-133Z" />
      <glyph unicode="-" glyph-name="gid142" horiz-adv-x="517" d="M59,219V372H476V219H59Z" />
      <glyph unicode="." glyph-name="gid122" horiz-adv-x="233" d="M54,0V153H207V0H54Z" />
      <glyph unicode="/" glyph-name="gid134" horiz-adv-x="521" d="M6,0V155L467,720h55V566L61,0H6Z" />
      <glyph unicode="0" glyph-name="gid112" horiz-adv-x="834" d="M203,0q-40,0-73,22.5t-53,58T57,155V571q0,40 20,74t53,54.5T203,720H618q40,0 73-20.5T744,645t20-74V155q0-39-20-74.5t-53-58T618,0H203Zm89,163H611V431L292,163ZM210,295L529,563H210V295Z" />
      <glyph unicode="1" glyph-name="gid113" horiz-adv-x="391" d="M237,0V487l-33-41H1L231,720H390V0H237Z" />
      <glyph unicode="2" glyph-name="gid114" horiz-adv-x="830" d="M57,0V279q0,40 20,73t53,52.5T203,424H611V567H210V509H57v66q0,40 20,73t53,52.5T203,720H618q40,0 73-19.5T744,648t20-73V416q0-40-20-73t-53-53t-73-20H210V153H764V0H57Z" />
      <glyph unicode="3" glyph-name="gid115" horiz-adv-x="826" d="M199,0q-40,0-73,20T73,73T53,145v56H206V153H607V286H171V439H580V567H206V511H53v64q0,40 20,73t53,52.5T199,720H588q40,0 73-19.5T713.5,648T733,575V431q0-11-1.5-23.5T727,385q15-18 24-41.5t9-49.5V145q0-39-19.5-72T688,20T615,0H199Z" />
      <glyph unicode="4" glyph-name="gid116" horiz-adv-x="730" d="M437,0V179H6V316L453,720H590V333h96V179H590V0H437ZM255,333H437V481L255,333Z" />
      <glyph unicode="5" glyph-name="gid117" horiz-adv-x="830" d="M203,0q-40,0-73,20T77,73T57,145v56H210V153H611V288H57V720H764V567H210V442H618q40,0 73-19.5T744,370t20-73V145q0-39-20-72T691,20T618,0H203Z" />
      <glyph unicode="6" glyph-name="gid118" horiz-adv-x="820" d="M203,0q-40,0-73,20T77,73T57,145V575q0,40 20,73t53,52.5T203,720H655V567H210V442H618q40,0 73-19.5T744,370t20-73V145q0-39-20-72T691,20T618,0H203Zm7,153H611V288H210V153Z" />
      <glyph unicode="7" glyph-name="gid119" horiz-adv-x="660" d="M448,0V568H3V721H456q40,0 73-19.5T581.5,649T601,576V0H448Z" />
      <glyph unicode="8" glyph-name="gid120" horiz-adv-x="834" d="M203,0q-40,0-73,20T77,73T57,145V297q0,17 5,34.5T74,365q-7,16-12,33.5T57,434V575q0,40 20,73t53,52.5T203,720H618q36,0 67-15.5T737,662t27-61V434q0-35-17-69q17-30 17-68V145q0-39-20-72T691,20T618,0H203Zm7,153H611V288H210V153Zm0,279H611V566H210V432Z" />
      <glyph unicode="9" glyph-name="gid121" horiz-adv-x="828" d="M200,0q-36,0-67,20.5t-53,55T51,153H608V281H200q-40,0-73,20T74,354T54,427V575q0,40 20,73t53,52.5T200,720H616q40,0 73-19.5T741.5,648T761,575V145q0-39-19.5-72T689,20T616,0H200Zm8,435H608V567H208V435Z" />
      <glyph unicode=":" glyph-name="gid124" horiz-adv-x="247" d="M54,426V580H207V426H54ZM54,0V153H207V0H54Z" />
      <glyph unicode=";" glyph-name="gid125" horiz-adv-x="266" d="M52-133V142H205V16q0-36-20-67t-55-53T52-133ZM51,426V580H205V426H51Z" />
      <glyph unicode="&lt;" glyph-name="gid164" horiz-adv-x="473" d="M432-17L5,231V359L432,607V431L198,296L432,160V-17Z" />
      <glyph unicode="=" glyph-name="gid162" horiz-adv-x="638" d="M59,331V484H585V331H59Zm0-202V282H585V129H59Z" />
      <glyph unicode="&gt;" glyph-name="gid163" horiz-adv-x="475" d="M59-19V159L292,294L59,428V605L487,358V229L59-19Z" />
      <glyph unicode="?" glyph-name="gid129" horiz-adv-x="678" d="M128,194v78q0,40 19.5,73T200,397.5T273,417H500V567H31V720H507q40,0 73-19.5T633,648t20-73V409q0-40-20-73t-53-53t-73-20H282V194H128ZM128,0V153H282V0H128Z" />
      <glyph unicode="@" glyph-name="gid167" horiz-adv-x="815" d="M200,0q-40,0-73,20T74,73T54,145V575q0,40 20,73t53,52.5T200,720H615q40,0 73-19.5T741,648t20-73V216H377q-40,0-68,14.5T266,273t-15,68v53q0,40 15,68t43,42.5T377,519h62q40,0 68-14.5T549.5,462T564,394V331h44V567H207V153H761V0H200ZM357,331H458v82H357V331Z" />
      <glyph unicode="A" glyph-name="gid1" horiz-adv-x="836" d="M58,0V572q0,41 20,74.5T132,700t74,20H629q41,0 74.5-20t54-53.5T778,572V0H621V232H213V0H58ZM213,388H621V564H213V388Z" />
      <glyph unicode="B" glyph-name="gid9" horiz-adv-x="832" d="M59,0V720H603q40,0 73.5-20t54-53.5T751,572V437q0-13-1.5-24.5T744,391q15-19 25-44t10-50V148q0-40-20.5-74t-54-54T630,0H59ZM214,156H622V288H214V156Zm0,288H594V564H214V444Z" />
      <glyph unicode="C" glyph-name="gid10" horiz-adv-x="822" d="M204,0q-41,0-74.5,20T76,73.5T56,148V572q0,41 20,74.5T129.5,700T204,720H774V564H244q-16,0-24.5-8T211,531V189q0-16 8.5-24.5T244,156H774V0H204Z" />
      <glyph unicode="D" glyph-name="gid12" horiz-adv-x="834" d="M58,0V720H629q41,0 74.5-20t54-53.5T778,572V148q0-40-20.5-74t-54-54T629,0H58ZM212,156H621V564H212V156Z" />
      <glyph unicode="E" glyph-name="gid13" horiz-adv-x="766" d="M58,0V720H723V564H215V438H624V282H215V156H723V0H58Z" />
      <glyph unicode="F" glyph-name="gid18" horiz-adv-x="723" d="M58,0V720H723V564H215V438H624V282H215V0H58Z" />
      <glyph unicode="G" glyph-name="gid19" horiz-adv-x="830" d="M204,0q-40,0-74,20T76,74T56,148V572q0,41 20,74.5T130,700t74,20H627q41,0 74.5-20t54-53.5T776,572V504H619v60H211V156H619V264H463V420H776V148q0-40-20.5-74t-54-54T627,0H204Z" />
      <glyph unicode="H" glyph-name="gid20" horiz-adv-x="851" d="M57,0V720H212V438H637V720H792V0H637V282H212V0H57Z" />
      <glyph unicode="I" glyph-name="gid21" horiz-adv-x="214" d="M31,0V720H184V0H31Z" />
      <glyph unicode="J" glyph-name="gid26" horiz-adv-x="780" d="M152,0Q112,0 78,20T24,74T4,148v93H159V156H567V720H724V148q0-40-20.5-74t-54-54T576,0H152Z" />
      <glyph unicode="K" glyph-name="gid27" horiz-adv-x="797" d="M57,0V720H213V438H354L590,720H752V666L495,360L752,54V0H590L354,282H213V0H57Z" />
      <glyph unicode="L" glyph-name="gid28" horiz-adv-x="779" d="M57,0V721H212V156H777V0H57Z" />
      <glyph unicode="M" glyph-name="gid29" horiz-adv-x="928" d="M56,0V720H216L460,429L703,720H864V0H708V483L460,187L211,482V0H56Z" />
      <glyph unicode="N" glyph-name="gid30" horiz-adv-x="832" d="M56,0V720H216L619,240V720H776V0H616L211,482V0H56Z" />
      <glyph unicode="O" glyph-name="gid32" horiz-adv-x="828" d="M202,0q-40,0-74,20T74,74T54,148V572q0,41 20,74.5T128,700t74,20H626q40,0 73.5-20t54-53.5T774,572V148q0-40-20.5-74t-54-54T626,0H202Zm7,156H617V564H209V156Z" />
      <glyph unicode="P" glyph-name="gid39" horiz-adv-x="791" d="M56,0V719H627q41,0 74.5-20t54-54T776,571V385q0-40-20.5-74t-54-54T627,237l-416-1V0H56ZM211,393H619V564H211V393Z" />
      <glyph unicode="Q" glyph-name="gid40" horiz-adv-x="884" d="M620,0V144l154,12h82V0H620ZM202,0q-40,0-74,20T74,74T54,148V572q0,41 20,74.5T128,700t74,20H626q40,0 73.5-20t54-53.5T774,572V148q0-40-20.5-74t-54-54T626,0H202Zm7,156H617V564H209V156Z" />
      <glyph unicode="R" glyph-name="gid41" horiz-adv-x="825" d="M615,0L406,249H609L775,53V0H615ZM56,0V719H627q41,0 74.5-20t54-54T776,571V385q0-40-20.5-74t-54-54T627,237l-416-1V0H56ZM211,393H619V564H211V393Z" />
      <glyph unicode="S" glyph-name="gid42" horiz-adv-x="828" d="M202,0q-40,0-74,20T74,74T54,148v67H209V156H617V282H202q-40,0-74,20T74,355.5T54,430V572q0,41 20,74.5T128,700t74,20H626q40,0 73.5-20t54-53.5T774,572V505H617v59H209V438H626q40,0 73.5-20t54-53.5T774,290V148q0-40-20.5-74t-54-54T626,0H202Z" />
      <glyph unicode="T" glyph-name="gid43" horiz-adv-x="759" d="M302,0V564H20V720H740V564H458V0H302Z" />
      <glyph unicode="U" glyph-name="gid44" horiz-adv-x="828" d="M202,0q-40,0-74,20T74,74T54,148V720H209V156H617V720H774V148q0-40-20.5-74t-54-54T626,0H202Z" />
      <glyph unicode="V" glyph-name="gid49" horiz-adv-x="1003" d="M452,0L35,720H215L517,197L819,720H998L581,0H452Z" />
      <glyph unicode="W" glyph-name="gid50" horiz-adv-x="1179" d="M297,0L35,720H200L357,291L514,720H657L815,291L972,720h164L874,0H755L585,463L416,0H297Z" />
      <glyph unicode="X" glyph-name="gid51" horiz-adv-x="812" d="M46,0V53L303,360L46,667v53H207L407,483L605,720H766V667L508,360L766,54V0H605L405,236L207,0H46Z" />
      <glyph unicode="Y" glyph-name="gid52" horiz-adv-x="806" d="M324,0V269L-9,720H176L402,436L627,720H814L480,268V0H324Z" />
      <glyph unicode="Z" glyph-name="gid54" horiz-adv-x="821" d="M51,0V159L533,564H51V720H771V561L289,156H771V0H51Z" />
      <glyph unicode="[" glyph-name="gid140" horiz-adv-x="275" d="M54,0V720H265V567H207V153h58V0H54Z" />
      <glyph unicode="\" glyph-name="gid135" horiz-adv-x="520" d="M466,0L5,566V720H60L521,154V0H466Z" />
      <glyph unicode="]" glyph-name="gid141" horiz-adv-x="276" d="M51,0V153h57V567H51V720H262V0H51Z" />
      <glyph unicode="_" glyph-name="gid145" horiz-adv-x="828" d="M54-155V-2H761V-155H54Z" />
      <glyph unicode="`" glyph-name="gid180" horiz-adv-x="272" d="M90,640L39,843H196l51-203H90Z" />
      <glyph unicode="a" glyph-name="gid55" horiz-adv-x="694" d="M197,0q-40,0-73,20T71.5,73T52,145V367H487v60H52V580H495q40,0 73-20t52.5-53T640,435V0H197Zm8,153H487v80H205V153Z" />
      <glyph unicode="b" glyph-name="gid63" horiz-adv-x="667" d="M54,0V770H207V580H497q40,0 73-20t52.5-53T642,435V145q0-39-19.5-72T570,20T497,0H54ZM207,153H489V427H207V153Z" />
      <glyph unicode="c" glyph-name="gid64" horiz-adv-x="695" d="M196,0q-39,0-72,20T71,73T51,145V435q0,39 20,72t53,53t72,20H638V427H204V153H639V0H196Z" />
      <glyph unicode="d" glyph-name="gid66" horiz-adv-x="667" d="M168,0Q128,0 95,20T42.5,73T23,145V435q0,39 19.5,72T95,560t73,20H459V770H612V0H168Zm9,153H459V427H177V153Z" />
      <glyph unicode="e" glyph-name="gid67" horiz-adv-x="692" d="M196,0q-39,0-72,20T71,73T51,145V435q0,39 20,72t53,53t72,20H494q40,0 73-20t52.5-53T639,435V213H204V153H639V0H196Zm8,347H486v80H204V347Z" />
      <glyph unicode="f" glyph-name="gid72" horiz-adv-x="440" d="M53,0V625q0,39 20,72t53,53t73,20H421V616H206V580H421V427H206V0H53Z" />
      <glyph unicode="g" glyph-name="gid73" horiz-adv-x="683" d="M133-229V-75H477V0H187q-40,0-73,20T61,73T41,145V435q0,39 20,72t53,53t73,20H485q40,0 73-20t52.5-53T630,435V-84q0-40-19.5-73T558-209.5T485-229H133Zm61,382H477V427H194V153Z" />
      <glyph unicode="h" glyph-name="gid74" horiz-adv-x="668" d="M54,0V770H207V580H497q39,0 72-20t53-53t20-72V0H489V427H207V0H54Z" />
      <glyph unicode="i" glyph-name="gid75" horiz-adv-x="229" d="M52,0V580H205V0H52Zm0,616V770H205V616H52Z" />
      <glyph unicode="j" glyph-name="gid81" horiz-adv-x="239" d="M-187-208V-54H58V580H211V-63q0-40-20-73t-53-52.5T65-208H-187ZM58,616V770H211V616H58Z" />
      <glyph unicode="k" glyph-name="gid82" horiz-adv-x="646" d="M54,0V770H207V367h78L482,580H636V528L420,290L636,52V0H482L285,213H207V0H54Z" />
      <glyph unicode="l" glyph-name="gid83" horiz-adv-x="337" d="M197,0q-39,0-72,20T72,73T52,145V771H206V153H323V0H197Z" />
      <glyph unicode="m" glyph-name="gid84" horiz-adv-x="978" d="M54,0V580H752q40,0 73-20t52.5-53T897,435V0H745V427H553V0H399V427H207V0H54Z" />
      <glyph unicode="n" glyph-name="gid85" horiz-adv-x="696" d="M54,0V580H497q40,0 73-20t52.5-53T642,435V0H489V427H207V0H54Z" />
      <glyph unicode="o" glyph-name="gid87" horiz-adv-x="692" d="M196,0q-39,0-72,20T71,73T51,145V435q0,39 20,72t53,53t72,20H494q40,0 73-20t52.5-53T639,435V145q0-39-19.5-72T567,20T494,0H196Zm8,153H486V427H204V153Z" />
      <glyph unicode="p" glyph-name="gid94" horiz-adv-x="664" d="M54-230V580H497q40,0 73-20t52.5-53T642,435V145q0-39-19.5-72T570,20T497,0H207V-230H54ZM207,153H489V427H207V153Z" />
      <glyph unicode="q" glyph-name="gid95" horiz-adv-x="664" d="M456-230V0H165Q125,0 92,20T39.5,73T20,145V435q0,39 19.5,72T92,560t73,20H609V-230H456ZM174,153H456V427H174V153Z" />
      <glyph unicode="r" glyph-name="gid96" horiz-adv-x="526" d="M52,0V435q0,39 20,72t53,53t73,20H518V427H205V0H52Z" />
      <glyph unicode="s" glyph-name="gid97" horiz-adv-x="686" d="M193,0q-39,0-72,20T68,73T48,145v29H201V153H483v60H193q-39,0-72,20T68,286T48,358v77q0,39 20,72t53,53t72,20H491q40,0 73-20t53-53t20-72V406H483v21H201V367H491q40,0 73-20t53-53t20-72V145q0-39-20-72T564,20T491,0H193Z" />
      <glyph unicode="t" glyph-name="gid99" horiz-adv-x="451" d="M199,0q-40,0-73,20T73,73T53,145V752H206V580H421V427H206V153H421V0H199Z" />
      <glyph unicode="u" glyph-name="gid100" horiz-adv-x="695" d="M198,0q-40,0-73,20T72.5,73T53,145V580H206V153H488V580H641V145q0-39-19.5-72T569,20T496,0H198Z" />
      <glyph unicode="v" glyph-name="gid105" horiz-adv-x="790" d="M340,0L21,580H197L406,195L615,580H791L471,0H340Z" />
      <glyph unicode="w" glyph-name="gid106" horiz-adv-x="1053" d="M263,0L35,580H197L322,279L453,580H601L741,275L857,580h162L801,0H685L528,346L378,0H263Z" />
      <glyph unicode="x" glyph-name="gid107" horiz-adv-x="692" d="M46,0V50L246,295L46,530v50H203L345,412L486,580H644V530L444,295L644,50V0H487L345,174L203,0H46Z" />
      <glyph unicode="y" glyph-name="gid108" horiz-adv-x="685" d="M134-208V-54H478V0H188q-40,0-73,20T62,73T42,145V578H195V153H478V578H631V-63q0-40-19.5-73T559-188.5T486-208H134Z" />
      <glyph unicode="z" glyph-name="gid111" horiz-adv-x="698" d="M54,0V157L403,427H54V580H642V423L293,153H642V0H54Z" />
      <glyph unicode="{" glyph-name="gid138" horiz-adv-x="289" d="M209,0q-40,0-73,20T83,73T63,145V280L23,303V434l40,22V575q0,40 20,73t53,52.5T209,720h65V567H216V406l-45-38l45-37V153h58V0H209Z" />
      <glyph unicode="|" glyph-name="gid171" horiz-adv-x="214" d="M54-99V804H207V-99H54Z" />
      <glyph unicode="}" glyph-name="gid139" horiz-adv-x="289" d="M51,0V153h58V330l45,38l-45,38V567H51V720h65q40,0 73-19.5T242,648t20-73V457l40-24V305l-40-25V145q0-39-20-72T189,20T116,0H51Z" />
      <glyph unicode="~" glyph-name="gid165" horiz-adv-x="404" d="M300,210q-36,0-94,31q-59,30-93,30q-38,0-89-39V364q53,23 95,23q38,0 103-31t89-31q32,0 88,36V235q-60-25-99-25Z" />
      <glyph unicode="&#xa0;" glyph-name="gid153" horiz-adv-x="322" />
      <glyph unicode="&#xa1;" glyph-name="gid128" horiz-adv-x="210" d="M53,0V526H206V0H53Zm0,553V706H206V553H53Z" />
      <glyph unicode="&#xa2;" glyph-name="gid155" horiz-adv-x="636" d="M291-99V0H179q-40,0-73,20T53,73T33,145V444q0,40 20,73t53,53t73,20H291V705H445V590H621V435H445V153H621V0H445V-99H291ZM186,153H291V435H186V153Z" />
      <glyph unicode="&#xa3;" glyph-name="gid157" horiz-adv-x="734" d="M39,0V153h90V277H39V430h90V575q0,40 20,73t53,52.5T274,720H535q40,0 73-19.5T660.5,648T680,575V519H526v58H282V430H584V277H282V153H680V0H39Z" />
      <glyph unicode="&#xa8;" glyph-name="gid179" horiz-adv-x="567" d="M313,640V794H467V640H313Zm-213,0V794H253V640H100Z" />
      <glyph unicode="&#xaf;" glyph-name="gid185" horiz-adv-x="500" d="M87,638v82H411V638H87Z" />
      <glyph unicode="&#xb0;" glyph-name="gid170" horiz-adv-x="439" d="M191,343q-40,0-73,20T65,416T45,489v72q0,40 20,73t53,52.5T191,706h81q39,0 72-19.5T397,634t20-73V489q0-40-20-73t-53-53t-72-20H191ZM180,479H282v92H180V479Z" />
      <glyph unicode="&#xb4;" glyph-name="gid181" horiz-adv-x="213" d="M28,640L79,843H236L185,640H28Z" />
      <glyph unicode="&#xb6;" glyph-name="gid169" horiz-adv-x="833" d="M410,0V232H202q-40,0-73,20T76,305T56,377V560q0,39 20,72.5T129,686t73,20H783V0H630V232H564V0H410ZM209,386H410V552H209V386Zm355,0h66V552H564V386Z" />
      <glyph unicode="&#xb8;" glyph-name="gid186" horiz-adv-x="213" d="M4-156L56,15H213L161-156H4Z" />
      <glyph unicode="&#xbf;" glyph-name="gid130" horiz-adv-x="675" d="M165,0Q125,0 92,20T39,73T19,145V312q0,40 20,73t53,52.5T165,457H391v75H544V449q0-40-20-73t-53-53t-73-20H172V153H642V0H165ZM391,553V706H544V553H391Z" />
      <glyph unicode="&#xc0;" glyph-name="gid5" horiz-adv-x="836" d="M58,0V572q0,41 20,74.5T132,700t74,20H629q41,0 74.5-20t54-53.5T778,572V0H621V232H213V0H58ZM213,388H621V564H213V388ZM348,780L297,983H454l51-203H348Z" />
      <glyph unicode="&#xc1;" glyph-name="gid2" horiz-adv-x="836" d="M58,0V572q0,41 20,74.5T132,700t74,20H629q41,0 74.5-20t54-53.5T778,572V0H621V232H213V0H58ZM213,388H621V564H213V388ZM334,780l51,203H542L491,780H334Z" />
      <glyph unicode="&#xc2;" glyph-name="gid3" horiz-adv-x="836" d="M58,0V572q0,41 20,74.5T132,700t74,20H629q41,0 74.5-20t54-53.5T778,572V0H621V232H213V0H58ZM213,388H621V564H213V388Zm46,392L369,964H469L579,780H445l-28,44l-25-44H259Z" />
      <glyph unicode="&#xc3;" glyph-name="gid7" horiz-adv-x="836" d="M58,0V572q0,41 20,74.5T132,700t74,20H629q41,0 74.5-20t54-53.5T778,572V0H621V232H213V0H58ZM213,388H621V564H213V388ZM504,788q-57,0-111,42q-52,42-86,42H230V988h89q55,0 102-43t92-43h93V788H504Z" />
      <glyph unicode="&#xc4;" glyph-name="gid4" horiz-adv-x="836" d="M58,0V572q0,41 20,74.5T132,700t74,20H629q41,0 74.5-20t54-53.5T778,572V0H621V232H213V0H58ZM213,388H621V564H213V388ZM448,780V934H602V780H448Zm-213,0V934H388V780H235Z" />
      <glyph unicode="&#xc5;" glyph-name="gid6" horiz-adv-x="836" d="M58,0V572q0,41 20,74.5T132,700t74,20H629q41,0 74.5-20t54-53.5T778,572V0H621V232H213V0H58ZM213,388H621V564H213V388ZM393,780q-31,0-54,22.5T316,856v49q0,31 23,53.5T393,981h51q31,0 53.5-22.5T520,905V856q0-31-22.5-53.5T444,780H393Zm0,69h50v54H393V849Z" />
      <glyph unicode="&#xc6;" glyph-name="gid8" horiz-adv-x="1375" d="M54,0V572q0,41 20.5,74.5t54,53.5T202,720H1283V564H774V438h409V282H774V156h509V0H619V232H211V0H54ZM211,388H619V564H211V388Z" />
      <glyph unicode="&#xc7;" glyph-name="gid11" horiz-adv-x="822" d="M204,0q-41,0-74.5,20T76,73.5T56,148V572q0,41 20,74.5T129.5,700T204,720H774V564H244q-16,0-24.5-8T211,531V189q0-16 8.5-24.5T244,156H774V0H204ZM327-156L379,15H536L484-156H327Z" />
      <glyph unicode="&#xc8;" glyph-name="gid17" horiz-adv-x="766" d="M58,0V720H723V564H215V438H624V282H215V156H723V0H58ZM328,780L277,983H434l51-203H328Z" />
      <glyph unicode="&#xc9;" glyph-name="gid14" horiz-adv-x="766" d="M58,0V720H723V564H215V438H624V282H215V156H723V0H58ZM314,780l51,203H522L471,780H314Z" />
      <glyph unicode="&#xca;" glyph-name="gid15" horiz-adv-x="766" d="M58,0V720H723V564H215V438H624V282H215V156H723V0H58ZM239,780L349,964H449L559,780H425l-28,44l-25-44H239Z" />
      <glyph unicode="&#xcb;" glyph-name="gid16" horiz-adv-x="766" d="M58,0V720H723V564H215V438H624V282H215V156H723V0H58ZM428,780V934H582V780H428Zm-213,0V934H368V780H215Z" />
      <glyph unicode="&#xcc;" glyph-name="gid25" horiz-adv-x="214" d="M31,0V720H184V0H31Zm8,780L-12,983H145l51-203H39Z" />
      <glyph unicode="&#xcd;" glyph-name="gid22" horiz-adv-x="214" d="M31,0V720H184V0H31ZM25,780L76,983H233L182,780H25Z" />
      <glyph unicode="&#xce;" glyph-name="gid23" horiz-adv-x="214" d="M31,0V720H184V0H31ZM-50,780L60,964H160L270,780H136l-28,44L83,780H-50Z" />
      <glyph unicode="&#xcf;" glyph-name="gid24" horiz-adv-x="214" d="M31,0V720H184V0H31ZM139,780V934H293V780H139Zm-213,0V934H79V780H-74Z" />
      <glyph unicode="&#xd1;" glyph-name="gid31" horiz-adv-x="832" d="M56,0V720H216L619,240V720H776V0H616L211,482V0H56ZM489,788q-57,0-111,42q-52,42-86,42H215V988h89q55,0 102-43t92-43h93V788H489Z" />
      <glyph unicode="&#xd2;" glyph-name="gid36" horiz-adv-x="828" d="M202,0q-40,0-74,20T74,74T54,148V572q0,41 20,74.5T128,700t74,20H626q40,0 73.5-20t54-53.5T774,572V148q0-40-20.5-74t-54-54T626,0H202Zm7,156H617V564H209V156ZM344,780L293,983H450l51-203H344Z" />
      <glyph unicode="&#xd3;" glyph-name="gid33" horiz-adv-x="828" d="M202,0q-40,0-74,20T74,74T54,148V572q0,41 20,74.5T128,700t74,20H626q40,0 73.5-20t54-53.5T774,572V148q0-40-20.5-74t-54-54T626,0H202Zm7,156H617V564H209V156ZM330,780l51,203H538L487,780H330Z" />
      <glyph unicode="&#xd4;" glyph-name="gid34" horiz-adv-x="828" d="M202,0q-40,0-74,20T74,74T54,148V572q0,41 20,74.5T128,700t74,20H626q40,0 73.5-20t54-53.5T774,572V148q0-40-20.5-74t-54-54T626,0H202Zm7,156H617V564H209V156Zm46,624L365,964H465L575,780H441l-28,44l-25-44H255Z" />
      <glyph unicode="&#xd5;" glyph-name="gid37" horiz-adv-x="828" d="M202,0q-40,0-74,20T74,74T54,148V572q0,41 20,74.5T128,700t74,20H626q40,0 73.5-20t54-53.5T774,572V148q0-40-20.5-74t-54-54T626,0H202Zm7,156H617V564H209V156ZM500,788q-57,0-111,42q-52,42-86,42H226V988h89q55,0 102-43t92-43h93V788H500Z" />
      <glyph unicode="&#xd6;" glyph-name="gid35" horiz-adv-x="828" d="M202,0q-40,0-74,20T74,74T54,148V572q0,41 20,74.5T128,700t74,20H626q40,0 73.5-20t54-53.5T774,572V148q0-40-20.5-74t-54-54T626,0H202Zm7,156H617V564H209V156ZM444,780V934H598V780H444Zm-213,0V934H384V780H231Z" />
      <glyph unicode="&#xd7;" glyph-name="gid160" horiz-adv-x="546" d="M53,82v50L182,300L53,466v50H211l68-94l69,94H507V466L377,300L507,132V82H348l-69,93L210,82H53Z" />
      <glyph unicode="&#xd9;" glyph-name="gid48" horiz-adv-x="828" d="M202,0q-40,0-74,20T74,74T54,148V720H209V156H617V720H774V148q0-40-20.5-74t-54-54T626,0H202ZM344,780L293,983H450l51-203H344Z" />
      <glyph unicode="&#xda;" glyph-name="gid45" horiz-adv-x="828" d="M202,0q-40,0-74,20T74,74T54,148V720H209V156H617V720H774V148q0-40-20.5-74t-54-54T626,0H202ZM330,780l51,203H538L487,780H330Z" />
      <glyph unicode="&#xdb;" glyph-name="gid46" horiz-adv-x="828" d="M202,0q-40,0-74,20T74,74T54,148V720H209V156H617V720H774V148q0-40-20.5-74t-54-54T626,0H202Zm53,780L365,964H465L575,780H441l-28,44l-25-44H255Z" />
      <glyph unicode="&#xdc;" glyph-name="gid47" horiz-adv-x="828" d="M202,0q-40,0-74,20T74,74T54,148V720H209V156H617V720H774V148q0-40-20.5-74t-54-54T626,0H202ZM444,780V934H598V780H444Zm-213,0V934H384V780H231Z" />
      <glyph unicode="&#xdd;" glyph-name="gid53" horiz-adv-x="806" d="M324,0V269L-9,720H176L402,436L627,720H814L480,268V0H324Zm-6,780l51,203H526L475,780H318Z" />
      <glyph unicode="&#xdf;" glyph-name="gid98" horiz-adv-x="833" d="M57,0V575q0,40 20,73t53,52.5T203,720H618q36,0 67-15.5T737,662t27-61V431q0-37-17-69q17-31 17-68V145q0-39-20-72T691,20T618,0H273V153H611V285H273V429H611V566H210V0H57Z" />
      <glyph unicode="&#xe0;" glyph-name="gid59" horiz-adv-x="694" d="M197,0q-40,0-73,20T71.5,73T52,145V367H487v60H52V580H495q40,0 73-20t52.5-53T640,435V0H197Zm8,153H487v80H205V153Zm92,487L246,843H403l51-203H297Z" />
      <glyph unicode="&#xe1;" glyph-name="gid56" horiz-adv-x="694" d="M197,0q-40,0-73,20T71.5,73T52,145V367H487v60H52V580H495q40,0 73-20t52.5-53T640,435V0H197Zm8,153H487v80H205V153Zm78,487l51,203H491L440,640H283Z" />
      <glyph unicode="&#xe2;" glyph-name="gid57" horiz-adv-x="694" d="M197,0q-40,0-73,20T71.5,73T52,145V367H487v60H52V580H495q40,0 73-20t52.5-53T640,435V0H197Zm8,153H487v80H205V153Zm3,487L318,824H418L528,640H394l-28,44l-25-44H208Z" />
      <glyph unicode="&#xe3;" glyph-name="gid61" horiz-adv-x="694" d="M197,0q-40,0-73,20T71.5,73T52,145V367H487v60H52V580H495q40,0 73-20t52.5-53T640,435V0H197Zm8,153H487v80H205V153ZM453,648q-57,0-111,42q-52,42-86,42H179V848h89q55,0 102-43t92-43h93V648H453Z" />
      <glyph unicode="&#xe4;" glyph-name="gid58" horiz-adv-x="694" d="M197,0q-40,0-73,20T71.5,73T52,145V367H487v60H52V580H495q40,0 73-20t52.5-53T640,435V0H197Zm8,153H487v80H205V153ZM397,640V794H551V640H397Zm-213,0V794H337V640H184Z" />
      <glyph unicode="&#xe5;" glyph-name="gid60" horiz-adv-x="694" d="M197,0q-40,0-73,20T71.5,73T52,145V367H487v60H52V580H495q40,0 73-20t52.5-53T640,435V0H197Zm8,153H487v80H205V153ZM342,640q-31,0-54,22.5T265,716v49q0,31 23,53.5T342,841h51q31,0 53.5-22.5T469,765V716q0-31-22.5-53.5T393,640H342Zm0,69h50v54H342V709Z" />
      <glyph unicode="&#xe6;" glyph-name="gid62" horiz-adv-x="1178" d="M197,0q-40,0-73,20T71.5,73T52,145V367H487v60H52V580H932q40,0 73-20t52.5-52.5T1077,435V213H642V153h435V0H197Zm8,153H487v80H205V153ZM642,347H924v80H642V347Z" />
      <glyph unicode="&#xe7;" glyph-name="gid65" horiz-adv-x="695" d="M196,0q-39,0-72,20T71,73T51,145V435q0,39 20,72t53,53t72,20H638V427H204V153H639V0H196Zm54-156L302,15H459L407-156H250Z" />
      <glyph unicode="&#xe8;" glyph-name="gid71" horiz-adv-x="692" d="M196,0q-39,0-72,20T71,73T51,145V435q0,39 20,72t53,53t72,20H494q40,0 73-20t52.5-53T639,435V213H204V153H639V0H196Zm8,347H486v80H204V347Zm71,293L224,843H381l51-203H275Z" />
      <glyph unicode="&#xe9;" glyph-name="gid68" horiz-adv-x="692" d="M196,0q-39,0-72,20T71,73T51,145V435q0,39 20,72t53,53t72,20H494q40,0 73-20t52.5-53T639,435V213H204V153H639V0H196Zm8,347H486v80H204V347Zm57,293l51,203H469L418,640H261Z" />
      <glyph unicode="&#xea;" glyph-name="gid69" horiz-adv-x="692" d="M196,0q-39,0-72,20T71,73T51,145V435q0,39 20,72t53,53t72,20H494q40,0 73-20t52.5-53T639,435V213H204V153H639V0H196Zm8,347H486v80H204V347ZM186,640L296,824H396L506,640H372l-28,44l-25-44H186Z" />
      <glyph unicode="&#xeb;" glyph-name="gid70" horiz-adv-x="692" d="M196,0q-39,0-72,20T71,73T51,145V435q0,39 20,72t53,53t72,20H494q40,0 73-20t52.5-53T639,435V213H204V153H639V0H196Zm8,347H486v80H204V347ZM375,640V794H529V640H375Zm-213,0V794H315V640H162Z" />
      <glyph unicode="&#xec;" glyph-name="gid80" horiz-adv-x="214" d="M31,0V580H184V0H31Zm6,640L-14,843H143l51-203H37Z" />
      <glyph unicode="&#xed;" glyph-name="gid77" horiz-adv-x="214" d="M31,0V580H184V0H31ZM23,640L74,843H231L180,640H23Z" />
      <glyph unicode="&#xee;" glyph-name="gid78" horiz-adv-x="214" d="M31,0V580H184V0H31ZM-52,640L58,824H158L268,640H134l-28,44L81,640H-52Z" />
      <glyph unicode="&#xef;" glyph-name="gid79" horiz-adv-x="214" d="M31,0V580H184V0H31ZM137,640V794H291V640H137Zm-213,0V794H77V640H-76Z" />
      <glyph unicode="&#xf1;" glyph-name="gid86" horiz-adv-x="696" d="M54,0V580H497q40,0 73-20t52.5-53T642,435V0H489V427H207V0H54ZM422,648q-57,0-111,42q-52,42-86,42H148V848h89q55,0 102-43t92-43h93V648H422Z" />
      <glyph unicode="&#xf2;" glyph-name="gid91" horiz-adv-x="692" d="M196,0q-39,0-72,20T71,73T51,145V435q0,39 20,72t53,53t72,20H494q40,0 73-20t52.5-53T639,435V145q0-39-19.5-72T567,20T494,0H196Zm8,153H486V427H204V153Zm71,485L224,841H381l51-203H275Z" />
      <glyph unicode="&#xf3;" glyph-name="gid88" horiz-adv-x="692" d="M196,0q-39,0-72,20T71,73T51,145V435q0,39 20,72t53,53t72,20H494q40,0 73-20t52.5-53T639,435V145q0-39-19.5-72T567,20T494,0H196Zm8,153H486V427H204V153Zm57,485l51,203H469L418,638H261Z" />
      <glyph unicode="&#xf4;" glyph-name="gid89" horiz-adv-x="692" d="M196,0q-39,0-72,20T71,73T51,145V435q0,39 20,72t53,53t72,20H494q40,0 73-20t52.5-53T639,435V145q0-39-19.5-72T567,20T494,0H196Zm8,153H486V427H204V153ZM186,638L296,822H396L506,638H372l-28,44l-25-44H186Z" />
      <glyph unicode="&#xf5;" glyph-name="gid92" horiz-adv-x="692" d="M196,0q-39,0-72,20T71,73T51,145V435q0,39 20,72t53,53t72,20H494q40,0 73-20t52.5-53T639,435V145q0-39-19.5-72T567,20T494,0H196Zm8,153H486V427H204V153ZM431,646q-57,0-111,42q-52,42-86,42H157V846h89q55,0 102-43t92-43h93V646H431Z" />
      <glyph unicode="&#xf6;" glyph-name="gid90" horiz-adv-x="692" d="M196,0q-39,0-72,20T71,73T51,145V435q0,39 20,72t53,53t72,20H494q40,0 73-20t52.5-53T639,435V145q0-39-19.5-72T567,20T494,0H196Zm8,153H486V427H204V153ZM375,638V792H529V638H375Zm-213,0V792H315V638H162Z" />
      <glyph unicode="&#xf7;" glyph-name="gid161" horiz-adv-x="519" d="M7,240V393H497V240H7ZM183,0V153H336V0H183Zm0,462V616H336V462H183Z" />
      <glyph unicode="&#xf9;" glyph-name="gid104" horiz-adv-x="695" d="M198,0q-40,0-73,20T72.5,73T53,145V580H206V153H488V580H641V145q0-39-19.5-72T569,20T496,0H198Zm79,639L226,842H383l51-203H277Z" />
      <glyph unicode="&#xfa;" glyph-name="gid101" horiz-adv-x="695" d="M198,0q-40,0-73,20T72.5,73T53,145V580H206V153H488V580H641V145q0-39-19.5-72T569,20T496,0H198Zm65,639l51,203H471L420,639H263Z" />
      <glyph unicode="&#xfb;" glyph-name="gid102" horiz-adv-x="695" d="M198,0q-40,0-73,20T72.5,73T53,145V580H206V153H488V580H641V145q0-39-19.5-72T569,20T496,0H198ZM188,639L298,823H398L508,639H374l-28,44l-25-44H188Z" />
      <glyph unicode="&#xfc;" glyph-name="gid103" horiz-adv-x="695" d="M198,0q-40,0-73,20T72.5,73T53,145V580H206V153H488V580H641V145q0-39-19.5-72T569,20T496,0H198ZM377,639V793H531V639H377Zm-213,0V793H317V639H164Z" />
      <glyph unicode="&#xfd;" glyph-name="gid109" horiz-adv-x="685" d="M134-208V-54H478V0H188q-40,0-73,20T62,73T42,145V578H195V153H478V578H631V-63q0-40-19.5-73T559-188.5T486-208H134ZM252,640l51,203H460L409,640H252Z" />
      <glyph unicode="&#xff;" glyph-name="gid110" horiz-adv-x="685" d="M134-208V-54H478V0H188q-40,0-73,20T62,73T42,145V578H195V153H478V578H631V-63q0-40-19.5-73T559-188.5T486-208H134ZM366,640V794H520V640H366Zm-213,0V794H306V640H153Z" />
      <glyph unicode="&#x2013;" glyph-name="gid143" horiz-adv-x="708" d="M54,218V371H652V218H54Z" />
      <glyph unicode="&#x2014;" glyph-name="gid144" horiz-adv-x="822" d="M54,218V371H756V218H54Z" />
      <glyph unicode="&#x2018;" glyph-name="gid148" horiz-adv-x="240" d="M34,437V563q0,37 20,68t55,52.5T187,712V437H34Z" />
      <glyph unicode="&#x2019;" glyph-name="gid149" horiz-adv-x="238" d="M54,432V706H207V581q0-36-20-67.5t-55-53T54,432Z" />
      <glyph unicode="&#x201c;" glyph-name="gid146" horiz-adv-x="466" d="M45,438V564q0,37 20,68.5T120,685t78,28V438H45Zm215-1V563q0,37 20.5,68.5t55,52.5T413,712V437H260Z" />
      <glyph unicode="&#x201d;" glyph-name="gid147" horiz-adv-x="466" d="M54,432V706H208V581q0-36-20.5-67T132,461T54,432Zm215,0V706H422V581q0-36-20-67t-55-53t-78-29Z" />
      <glyph unicode="&#x2022;" glyph-name="gid131" horiz-adv-x="371" d="M174,279q-66,0-66,65v18q0,66 66,66h21q67,0 67-66V344q0-65-67-65H174Z" />
    </font>
</defs>
</svg>
