<?xml version="1.0" standalone="no"?>
<!DOCTYPE svg PUBLIC "-//W3C//DTD SVG 1.1//EN" "http://www.w3.org/Graphics/SVG/1.1/DTD/svg11.dtd">
<svg xmlns="http://www.w3.org/2000/svg">
  <defs>
    <font id="Orbitron" horiz-adv-x="637">
      <font-face font-family="Orbitron SemiBold" units-per-em="1000" panose-1="0 0 0 0 0 0 0 0 0 0" ascent="1011" descent="-243" alphabetic="0" />
      <glyph unicode=" " glyph-name="gid152" horiz-adv-x="298" />
      <glyph unicode="!" glyph-name="gid127" horiz-adv-x="220" d="M58,202V720H177V202H58ZM58,0V119H177V0H58Z" />
      <glyph unicode="&quot;" glyph-name="gid150" horiz-adv-x="385" d="M216,540V713H334V540H216ZM47,540V713H166V540H47Z" />
      <glyph unicode="#" glyph-name="gid133" horiz-adv-x="797" d="M69,0l50,164H32V284H156l51,159H62V563H245l52,157H419L365,563H561l52,157H734L680,563h81V443H643L592,284H731V164H553L504,0H384l50,164H238L189,0H69ZM277,284H471l52,159H328L277,284Z" />
      <glyph unicode="$" glyph-name="gid156" horiz-adv-x="788" d="M333-106V0H169Q130,0 99.5,18t-48,49T34,135v46H153V137q0-7 5.5-12.5T171,119H332V298H169q-38,0-68.5,18.5T52,365.5T34,434V585q0,38 17.5,68.5t48,48.5T169,720H333V826H452V720H615q38,0 69-18t48.5-48.5T750,585l-1-47H631v44q0,8-5.5,13.5T612,601H452V418H615q38,0 69-18t48.5-48.5T750,286V135q0-37-17.5-68T684,18T616,0H452V-106H333ZM171,418H332V601H171q-7,0-12.5-5.5T153,583V436q0-8 5.5-13t12.5-5ZM452,119H613q7,0 12.5,5.5T631,138V280q0,8-6,13.5T612,299H452V119Z" />
      <glyph unicode="%" glyph-name="gid166" horiz-adv-x="966" d="M135,0V134L820,715l32,5V587L170,7L135,0Zm42,380q-37,0-66,17T65,443.5T48,509v78q0,37 17,66t46,46t66,17h88q37,0 66-17t46-46t17-66V509q0-36-17-65.5T331,397t-66-17H177Zm-17,96H281q8,0 13,5t5,12V603q0,8-5,13t-13,5H160q-7,0-12-5t-5-13V493q0-7 5-12t12-5ZM703,4q-36,0-65,17T592,67t-17,66v78q0,37 17,66t46,46t65,17h88q37,0 66-17t46-46t17-66V133q0-37-17-66T857,21T791,4H703ZM687,99H808q7,0 12,5t5,12V228q0,7-5,12t-12,5H687q-7,0-12-5t-5-12V116q0-7 5-12t12-5Z" />
      <glyph unicode="&amp;" glyph-name="gid168" horiz-adv-x="938" d="M187,0q-37,0-67,18T71.5,66T53,134V333q0,22 18.5,44.5T122,408q-30,29-30,73V585q0,38 18.5,68T159,701t66,18H606q32,0 60-15t48-40.5T740,608V536H620v44q0,7-5.5,12.5T602,598H230q-8,0-13.5-5.5T211,580V457L650,236V352H769V189l124-74V-2L754,77q-18-34-50-55.5T635,0H187Zm4,119H572q11,0 21,5t19,12L207,341l-15,4q-9,0-14.5-9.5T172,302V138q0-8 5.5-13.5T191,119Z" />
      <glyph unicode="&apos;" glyph-name="gid151" horiz-adv-x="238" d="M59,540V713H178V540H59Z" />
      <glyph unicode="(" glyph-name="gid136" horiz-adv-x="286" d="M186,0q-37,0-67.5,18.5T70,67T52,134V586q0,37 18,67.5T118.5,702T186,720h48V600H190q-8,0-13.5-5.5T171,582V138q0-8 5.5-13.5T190,119h44V0H186Z" />
      <glyph unicode=")" glyph-name="gid137" horiz-adv-x="288" d="M56,0V119h44q7,0 12.5,5.5T118,138V582q0,7-5.5,12.5T100,600H56V720h49q36,0 66.5-18t49-48.5T239,586V134q0-37-18.5-67t-49-48.5T105,0H56Z" />
      <glyph unicode="*" glyph-name="gid132" horiz-adv-x="504" d="M170,287L73,356l79,109L25,505L61,621l127-43V712H308V579l127,42l37-116L345,465l79-108l-96-70L248,394L170,287Z" />
      <glyph unicode="+" glyph-name="gid158" horiz-adv-x="445" d="M157,93V236H17V355H157V497H277V355H421V236H277V93H157Z" />
      <glyph unicode="," glyph-name="gid123" horiz-adv-x="219" d="M54-132V114H173V1q0-32-15.5-59T115-105T54-132Z" />
      <glyph unicode="-" glyph-name="gid142" horiz-adv-x="517" d="M59,236V355H463V236H59Z" />
      <glyph unicode="." glyph-name="gid122" horiz-adv-x="224" d="M54,0V119H173V0H54Z" />
      <glyph unicode="/" glyph-name="gid134" horiz-adv-x="521" d="M6,0V132L485,716l32,4V590L39,5L6,0Z" />
      <glyph unicode="0" glyph-name="gid112" horiz-adv-x="834" d="M191,0q-37,0-67.5,19.5T75,71T57,139V584q0,37 18,68t48.5,49.5T191,720H639q37,0 67.5-18.5T755,652t18-68V139q0-36-18-68T706.5,19.5T639,0H191Zm33,125H636q7,0 12.5,5.5T654,143V482L224,125ZM176,241L606,598H195q-8,0-13.5-5.5T176,580V241Z" />
      <glyph unicode="1" glyph-name="gid113" horiz-adv-x="391" d="M228,0V554l-69-85H1L212,720H348V0H228Z" />
      <glyph unicode="2" glyph-name="gid114" horiz-adv-x="830" d="M57,0V275q0,37 18,67.5t48.5,48T191,408H636q7,0 12.5,5.5T654,427V582q0,8-5.5,13.5T636,601H195q-8,0-13.5-5.5T176,582V538H57v48q0,38 18,68t48.5,48T191,720H639q37,0 67.5-18T755,654t18-68V423q0-37-18-67.5t-48.5-49T639,288H195q-8,0-13.5-5T176,270V138q0-8 5.5-13.5T195,119H773V0H57Z" />
      <glyph unicode="3" glyph-name="gid115" horiz-adv-x="826" d="M188,0q-38,0-68,18.5T71.5,67T53,134v37H173V138q0-8 5.5-13.5T191,119H632q8,0 13.5,5.5T651,138V287q0,8-5.5,13T632,305H180V425H603q7,0 12.5,5.5T621,443V582q0,8-5.5,13.5T603,601H191q-7,0-12.5-5.5T173,582V540H53v46q0,38 18.5,68T120,702t68,18H607q37,0 67.5-18T723,654t18-68V439q0-12-2.5-25T732,390q19-21 28.5-47t9.5-52V134q0-37-18-67T703.5,18.5T636,0H188Z" />
      <glyph unicode="4" glyph-name="gid116" horiz-adv-x="730" d="M471,0V182H6V298L474,720H590V302H694V182H590V0H471ZM187,302H471V542L187,302Z" />
      <glyph unicode="5" glyph-name="gid117" horiz-adv-x="830" d="M191,0q-37,0-67.5,18.5T75,67T57,134v43H176V138q0-8 5.5-13.5T195,119H636q7,0 12.5,5.5T654,138V289q0,8-5.5,13.5T636,308H57V720H773V601H195q-8,0-13.5-5.5T176,582V447q0-8 5.5-13.5T195,428H639q37,0 67.5-18T755,361.5T773,294V134q0-37-18-67T706.5,18.5T639,0H191Z" />
      <glyph unicode="6" glyph-name="gid118" horiz-adv-x="820" d="M191,0q-37,0-67.5,18.5T75,67T57,134V586q0,38 18,68t48.5,48T191,720H656V601H195q-8,0-13.5-5.5T176,582V448q0-7 5.5-13t13.5-6H639q37,0 67.5-17.5t48.5-48T773,296V134q0-37-18-67T706.5,18.5T639,0H191Zm4,119H636q7,0 12.5,5.5T654,138V291q0,7-5.5,12.5T636,309H176V138q0-8 5.5-13.5T195,119Z" />
      <glyph unicode="7" glyph-name="gid119" horiz-adv-x="660" d="M483,0V583q0,7-5.5,12.5T465,601H3V721H469q36,0 66.5-18T584,654.5T602,587V0H483Z" />
      <glyph unicode="8" glyph-name="gid120" horiz-adv-x="834" d="M191,0q-37,0-67.5,18.5T75,67T57,134V294q0,19 6.5,37.5T80,368q-10,17-16.5,36.5T57,443V586q0,38 18,68t48.5,48T191,720H639q32,0 60-15t48-40t26-55V443q0-38-23-75q23-34 23-74V134q0-37-18-67T706.5,18.5T639,0H191Zm4,119H636q7,0 12.5,5.5T654,138V289q0,8-5.5,13.5T636,308H195q-8,0-13.5-5.5T176,289V138q0-8 5.5-13.5T195,119Zm0,298H636q7,0 12.5,5.5T654,436V581q0,8-5.5,13.5T636,600H195q-8,0-13.5-5.5T176,581V436q0-8 5.5-13.5T195,417Z" />
      <glyph unicode="9" glyph-name="gid121" horiz-adv-x="828" d="M187,0q-31,0-58.5,16t-47,42.5T54,119H632q7,0 12.5,5.5T650,138V274q0,7-5.5,12.5T632,292H187q-37,0-67.5,18.5T71,359.5T53,427V586q0,38 18,68t48.5,48T187,720H636q36,0 66.5-18t49-48T770,586V134q0-37-18.5-67t-49-48.5T636,0H187Zm4,412H650V582q0,8-5.5,13.5T632,601H191q-7,0-12.5-5.5T173,582V431q0-8 5.5-13.5T191,412Z" />
      <glyph unicode=":" glyph-name="gid124" horiz-adv-x="231" d="M54,464V584H173V464H54ZM54,0V119H173V0H54Z" />
      <glyph unicode=";" glyph-name="gid125" horiz-adv-x="231" d="M52-132V114H171V1q0-32-15.5-59T113-105T52-132ZM51,464V584H171V464H51Z" />
      <glyph unicode="&lt;" glyph-name="gid164" horiz-adv-x="473" d="M420-1L5,239V352L420,592V455L146,296L420,137V-1Z" />
      <glyph unicode="=" glyph-name="gid162" horiz-adv-x="638" d="M59,340V460H581V340H59Zm0-201V259H581V139H59Z" />
      <glyph unicode="&gt;" glyph-name="gid163" horiz-adv-x="475" d="M59-3V135L333,294L59,452V590L475,351V237L59-3Z" />
      <glyph unicode="?" glyph-name="gid129" horiz-adv-x="678" d="M140,197v61q0,38 18,68t48.5,48T273,392H523q7,0 12.5,5.5T541,410V581q0,8-5.5,13.5T523,600H31V720H526q37,0 67.5-18.5t49-48.5T661,585V406q0-36-18.5-66.5t-49-49T526,272H278q-7,0-12.5-5.5T260,254V197H140ZM140,0V119H260V0H140Z" />
      <glyph unicode="@" glyph-name="gid167" horiz-adv-x="823" d="M188,0q-37,0-67.5,18.5T72,67T54,134V586q0,37 18,67.5T120.5,702T188,720H636q37,0 67.5-18T752,653.5T770,586V205H374q-37,0-65,15.5t-43.5,43T250,328v68q0,37 15.5,64.5t43.5,43T374,519h77q37,0 65-15.5t43-43T574,396V295h77V582q0,7-5.5,12.5T633,600H192q-8,0-13.5-5.5T173,582V138q0-8 5.5-13.5T192,119H770V0H188ZM353,295H490V416q0,7-5.5,12.5T471,434H353q-7,0-12.5-5.5T335,416V313q0-8 5.5-13t12.5-5Z" />
      <glyph unicode="A" glyph-name="gid1" horiz-adv-x="836" d="M58,0V585q0,37 18,68t49,49t68,18H643q37,0 67.5-18t49-49T778,585V0H657V247H178V0H58ZM178,367H657V581q0,8-5.5,13T638,599H196q-7,0-12.5-5T178,581V367Z" />
      <glyph unicode="B" glyph-name="gid9" horiz-adv-x="832" d="M59,0V720H615q37,0 67.5-18t49-49T750,585V442q0-14-2.5-26.5T740,392q18-25 28.5-49.5T779,293V135q0-37-18.5-68t-49-49T644,0H59ZM197,121H639q8,0 13.5,5t5.5,13V288q0,8-5.5,13T639,306H197q-7,0-12.5-5T179,288V139q0-8 5.5-13t12.5-5Zm0,306H610q8,0 13,5.5t5,12.5V581q0,8-5,13t-13,5H197q-7,0-12.5-5T179,581V445q0-7 5.5-12.5T197,427Z" />
      <glyph unicode="C" glyph-name="gid10" horiz-adv-x="822" d="M191,0q-37,0-68,18T74,67T56,135V585q0,37 18,68t49,49t68,18H774V599H212q-16,0-26-9.5T176,564V156q0-16 10-25.5t26-9.5H774V0H191Z" />
      <glyph unicode="D" glyph-name="gid12" horiz-adv-x="834" d="M58,0V720H643q37,0 67.5-18t49-49T778,585V135q0-37-18.5-68t-49-49T643,0H58ZM196,121H638q8,0 13.5,5t5.5,13V581q0,8-5.5,13T638,599H196q-8,0-13.5-5T177,581V139q0-8 5.5-13t13.5-5Z" />
      <glyph unicode="E" glyph-name="gid13" horiz-adv-x="766" d="M58,0V720H719V599H179V421H614V299H179V121H719V0H58Z" />
      <glyph unicode="F" glyph-name="gid18" horiz-adv-x="723" d="M58,0V720H719V599H179V421H614V299H179V0H58Z" />
      <glyph unicode="G" glyph-name="gid19" horiz-adv-x="830" d="M191,0q-37,0-68,18T74,67T56,135V585q0,37 18,68t49,49t68,18H641q37,0 67.5-18t49-49T776,585V536H655v45q0,8-5.5,13T636,599H194q-7,0-12.5-5T176,581V139q0-8 5.5-13t12.5-5H636q8,0 13.5,5t5.5,13V280H489V401H776V135q0-37-18.5-68t-49-49T641,0H191Z" />
      <glyph unicode="H" glyph-name="gid20" horiz-adv-x="851" d="M57,0V720H177V421H673V720H793V0H673V299H177V0H57Z" />
      <glyph unicode="I" glyph-name="gid21" horiz-adv-x="214" d="M48,0V720H167V0H48Z" />
      <glyph unicode="J" glyph-name="gid26" horiz-adv-x="780" d="M139,0Q102,0 71,18T22,67T4,135v76H124V139q0-8 5.5-13t12.5-5H584q8,0 13.5,5t5.5,13V720H724V135q0-37-18.5-68t-49-49T589,0H139Z" />
      <glyph unicode="K" glyph-name="gid27" horiz-adv-x="797" d="M57,0V720H178V421H362L613,720H748V691L470,360L748,29V0H613L362,299H178V0H57Z" />
      <glyph unicode="L" glyph-name="gid28" horiz-adv-x="779" d="M57,0V721H177V121H777V0H57Z" />
      <glyph unicode="M" glyph-name="gid29" horiz-adv-x="928" d="M56,0V720H193L463,398L732,720H870V0H749V552L463,211L176,551V0H56Z" />
      <glyph unicode="N" glyph-name="gid30" horiz-adv-x="832" d="M56,0V720H193L655,170V720H776V0H639L176,551V0H56Z" />
      <glyph unicode="O" glyph-name="gid32" horiz-adv-x="828" d="M189,0q-37,0-68,18T72,67T54,135V585q0,37 18,68t49,49t68,18H639q37,0 67.5-18t49-49T774,585V135q0-37-18.5-68t-49-49T639,0H189Zm3,121H634q8,0 13.5,5t5.5,13V581q0,8-5.5,13T634,599H192q-7,0-12.5-5T174,581V139q0-8 5.5-13t12.5-5Z" />
      <glyph unicode="P" glyph-name="gid39" horiz-adv-x="791" d="M56,0V719H641q37,0 67.5-18.5t49-49T776,584V386q0-36-18.5-67t-49-49T641,252l-465-1V0H56ZM194,373H636q8,0 13.5,5t5.5,13V581q0,7-5.5,12.5T636,599H194q-7,0-12.5-5.5T176,581V391q0-8 5.5-13t12.5-5Z" />
      <glyph unicode="Q" glyph-name="gid40" horiz-adv-x="884" d="M632,0V93l142,47V121h88V0H632ZM189,0q-37,0-68,18T72,67T54,135V585q0,37 18,68t49,49t68,18H639q37,0 67.5-18t49-49T774,585V135q0-37-18.5-68t-49-49T639,0H189Zm3,121H634q8,0 13.5,5t5.5,13V581q0,8-5.5,13T634,599H192q-7,0-12.5-5T174,581V139q0-8 5.5-13t12.5-5Z" />
      <glyph unicode="R" glyph-name="gid41" horiz-adv-x="825" d="M638,0L417,264H574L773,28V0H638ZM56,0V719H641q37,0 67.5-18.5t49-49T776,584V386q0-36-18.5-67t-49-49T641,252l-465-1V0H56ZM194,373H636q8,0 13.5,5t5.5,13V581q0,7-5.5,12.5T636,599H194q-7,0-12.5-5.5T176,581V391q0-8 5.5-13t12.5-5Z" />
      <glyph unicode="S" glyph-name="gid42" horiz-adv-x="825" d="M187,0q-37,0-67.5,18T71,67T53,135v48H173V139q0-8 5-13t13-5H633q8,0 13.5,5t5.5,13V282q0,7-5.5,12T633,299H187q-37,0-67.5,18.5T71,366.5T53,434V585q0,37 18,68t48.5,49T187,720H638q37,0 67.5-18t49-49T773,585V537H652v44q0,8-5.5,13T633,599H191q-8,0-13-5t-5-13V438q0-7 5-12t13-5H638q37,0 67.5-18.5t49-49T773,286V135q0-37-18.5-68t-49-49T638,0H187Z" />
      <glyph unicode="T" glyph-name="gid43" horiz-adv-x="759" d="M320,0V599H20V720H740V599H441V0H320Z" />
      <glyph unicode="U" glyph-name="gid44" horiz-adv-x="828" d="M189,0q-37,0-68,18T72,67T54,135V720H174V139q0-8 5.5-13t12.5-5H634q8,0 13.5,5t5.5,13V720H774V135q0-37-18.5-68t-49-49T639,0H189Z" />
      <glyph unicode="V" glyph-name="gid49" horiz-adv-x="1003" d="M452,0L35,720H175L508,141L842,720H981L564,0H452Z" />
      <glyph unicode="W" glyph-name="gid50" horiz-adv-x="1179" d="M297,0L35,720H163L345,221L527,720H649L832,221l182,499h128L880,0H783L588,535L393,0H297Z" />
      <glyph unicode="X" glyph-name="gid51" horiz-adv-x="812" d="M46,0V28L324,360L46,692v28H180L404,455L627,720H761V692L482,360L761,29V0H627L403,265L180,0H46Z" />
      <glyph unicode="Y" glyph-name="gid52" horiz-adv-x="806" d="M342,0V270L10,720H152L403,404L652,720H796L463,269V0H342Z" />
      <glyph unicode="Z" glyph-name="gid54" horiz-adv-x="821" d="M51,0V136L602,599H51V720H771V584L220,121H771V0H51Z" />
      <glyph unicode="[" glyph-name="gid140" horiz-adv-x="275" d="M54,0V720H236V601H173V119h63V0H54Z" />
      <glyph unicode="\" glyph-name="gid135" horiz-adv-x="520" d="M486,0L5,592V720H37L516,132L517,0H486Z" />
      <glyph unicode="]" glyph-name="gid141" horiz-adv-x="276" d="M51,0V119h62V601H51V720H233V0H51Z" />
      <glyph unicode="_" glyph-name="gid145" horiz-adv-x="828" d="M54-120V-1H771V-120H54Z" />
      <glyph unicode="`" glyph-name="gid180" horiz-adv-x="292" d="M112,640L69,813H190l43-173H112Z" />
      <glyph unicode="a" glyph-name="gid55" horiz-adv-x="694" d="M186,0q-37,0-67.5,18.5T70,67T52,134V350H522v92q0,8-5.5,13.5T503,461H52V580H507q38,0 68-18.5T623,513t18-67V0H186Zm4,119H522V241H171V138q0-8 5.5-13.5T190,119Z" />
      <glyph unicode="b" glyph-name="gid63" horiz-adv-x="667" d="M54,0V770H173V580H510q36,0 66.5-18.5T625,513t18-67V134q0-37-18-67T576.5,18.5T510,0H54ZM192,119H506q7,0 12.5,5.5T524,138V442q0,8-5.5,13.5T506,461H192q-7,0-13-5.5T173,442V138q0-8 6-13.5t13-5.5Z" />
      <glyph unicode="c" glyph-name="gid64" horiz-adv-x="695" d="M185,0q-37,0-67,18.5T69.5,67T51,134V446q0,37 18.5,67T118,561.5T185,580H639V461H189q-8,0-13.5-5.5T170,442V138q0-8 5.5-13.5T189,119H640V0H185Z" />
      <glyph unicode="d" glyph-name="gid66" horiz-adv-x="667" d="M157,0Q120,0 89.5,18.5T41,67T23,134V446q0,37 18,67t48.5,48.5T157,580H494V770H613V0H157Zm5,119H475q8,0 13.5,5.5T494,138V442q0,8-5.5,13.5T475,461H162q-8,0-13.5-5.5T143,442V138q0-8 5.5-13.5T162,119Z" />
      <glyph unicode="e" glyph-name="gid67" horiz-adv-x="692" d="M185,0q-37,0-67,18.5T69.5,67T51,134V446q0,37 18.5,67T118,561.5T185,580H506q38,0 68-18.5T622,513t18-67V230H170V138q0-8 5.5-13.5T189,119H640V0H185ZM170,339H521V442q0,8-5.5,13.5T502,461H189q-8,0-13.5-5.5T170,442V339Z" />
      <glyph unicode="f" glyph-name="gid72" horiz-adv-x="424" d="M53,0V636q0,37 18,67.5T119.5,752T187,770H404V650H191q-8,0-13.5-5.5T172,632V580H404V461H172V0H53Z" />
      <glyph unicode="g" glyph-name="gid73" horiz-adv-x="683" d="M140-229v120H493q7,0 12.5,5.5T511-90V0H175q-36,0-66.5,18.5T59.5,67T41,134V446q0,37 18.5,67t49,48.5T175,580H497q37,0 67.5-18.5t48-48.5T630,446V-95q0-37-17.5-67.5t-48-48.5T497-229H140Zm39,348H493q7,0 12.5,5.5T511,138V442q0,8-5.5,13.5T493,461H179q-8,0-13.5-5.5T160,442V138q0-8 5.5-13.5T179,119Z" />
      <glyph unicode="h" glyph-name="gid74" horiz-adv-x="668" d="M54,0V770H173V580H510q36,0 66.5-18.5T625,513t18-67V0H524V442q0,8-5.5,13.5T506,461H192q-7,0-13-5.5T173,442V0H54Z" />
      <glyph unicode="i" glyph-name="gid75" horiz-adv-x="219" d="M52,0V580H171V0H52Zm0,650V770H171V650H52Z" />
      <glyph unicode="j" glyph-name="gid81" horiz-adv-x="239" d="M-187-225v121H58q8,0 13,5.5T76-86V580H196V-90q0-38-18-68t-48.5-48.5T62-225H-187ZM76,650V770H196V650H76Z" />
      <glyph unicode="k" glyph-name="gid82" horiz-adv-x="646" d="M54,0V770H173V350H290L502,580H634V552L396,290L634,28V0H502L290,230H173V0H54Z" />
      <glyph unicode="l" glyph-name="gid83" horiz-adv-x="320" d="M186,0q-37,0-67,18.5T70.5,67T52,134V771H172V138q0-8 5.5-13.5T190,119H298V0H186Z" />
      <glyph unicode="m" glyph-name="gid84" horiz-adv-x="978" d="M54,0V580H784q38,0 68-18.5T900,513t18-67V0H799V442q0,8-5.5,13.5T780,461H565q-7,0-12.5-5.5T547,442V0H426V442q0,8-5,13.5T408,461H192q-7,0-12.5-5.5T174,442V0H54Z" />
      <glyph unicode="n" glyph-name="gid85" horiz-adv-x="696" d="M54,0V580H510q36,0 66.5-18.5T625,513t18-67V0H524V442q0,8-5.5,13.5T506,461H192q-7,0-13-5.5T173,442V0H54Z" />
      <glyph unicode="o" glyph-name="gid87" horiz-adv-x="692" d="M185,0q-37,0-67,18.5T69.5,67T51,134V446q0,37 18.5,67T118,561.5T185,580H506q38,0 68-18.5T622,513t18-67V134q0-37-18-67T574,18.5T506,0H185Zm4,119H502q8,0 13.5,5.5T521,138V442q0,8-5.5,13.5T502,461H189q-8,0-13.5-5.5T170,442V138q0-8 5.5-13.5T189,119Z" />
      <glyph unicode="p" glyph-name="gid94" horiz-adv-x="664" d="M54-230V580H510q36,0 66.5-18.5T625,513t18-67V134q0-37-18-67T576.5,18.5T510,0H173V-230H54ZM192,119H506q7,0 12.5,5.5T524,138V442q0,8-5.5,13.5T506,461H192q-7,0-13-5.5T173,442V138q0-8 6-13.5t13-5.5Z" />
      <glyph unicode="q" glyph-name="gid95" horiz-adv-x="664" d="M491-230V0H154Q117,0 86.5,18.5T38,67T20,134V446q0,37 18,67t48.5,48.5T154,580H610V-230H491ZM159,119H472q8,0 13.5,5.5T491,138V442q0,8-5.5,13.5T472,461H159q-8,0-13.5-5.5T140,442V138q0-8 5.5-13.5T159,119Z" />
      <glyph unicode="r" glyph-name="gid96" horiz-adv-x="519" d="M52,0V446q0,37 18.5,67t49,48.5T186,580H509V461H190q-8,0-13.5-5.5T171,442V0H52Z" />
      <glyph unicode="s" glyph-name="gid97" horiz-adv-x="686" d="M182,0q-37,0-67,18.5T66.5,67T48,134v19H167V138q0-8 5.5-13.5T186,119H499q8,0 13.5,5.5T518,138v74q0,7-5.5,12.5T499,230H182q-37,0-67,18.5T66.5,297T48,364v82q0,37 18.5,67T115,561.5T182,580H503q38,0 68-18.5T619.5,513T638,446V427H518v15q0,8-5.5,13.5T499,461H186q-8,0-13.5-5.5T167,442V368q0-7 5.5-12.5T186,350H503q38,0 68-18.5T619.5,283T638,216V134q0-37-18.5-67T571,18.5T503,0H182Z" />
      <glyph unicode="t" glyph-name="gid99" horiz-adv-x="432" d="M187,0q-37,0-67.5,18.5T71,67T53,134V761H172V580H404V461H172V138q0-8 5.5-13.5T191,119H404V0H187Z" />
      <glyph unicode="u" glyph-name="gid100" horiz-adv-x="695" d="M187,0q-37,0-67.5,18.5T71,67T53,134V580H172V138q0-8 5.5-13.5T191,119H504q8,0 13.5,5.5T523,138V580H642V134q0-37-18-67T576,18.5T508,0H187Z" />
      <glyph unicode="v" glyph-name="gid105" horiz-adv-x="790" d="M340,0L21,580H159L398,141L637,580H775L454,0H340Z" />
      <glyph unicode="w" glyph-name="gid106" horiz-adv-x="1062" d="M263,0L35,580H162L311,217L469,580H598L766,215L904,580h128L813,0H719L534,409L358,0H263Z" />
      <glyph unicode="x" glyph-name="gid107" horiz-adv-x="692" d="M46,0V27L266,295L46,553v27H180L344,387L507,580H641V553L421,295L642,27V0H508L344,201L180,0H46Z" />
      <glyph unicode="y" glyph-name="gid108" horiz-adv-x="685" d="M141-218V-98H494q7,0 12.5,5.5T512-80V0H176q-36,0-66.5,18.5T60.5,67T42,134V578H161V138q0-8 5.5-13.5T180,119H494q7,0 12.5,5.5T512,138V578H631V-84q0-38-17.5-68t-48-48T498-218H141Z" />
      <glyph unicode="z" glyph-name="gid111" horiz-adv-x="698" d="M54,0V136L475,461H54V580H643V444L223,119H643V0H54Z" />
      <glyph unicode="{" glyph-name="gid138" horiz-adv-x="289" d="M200,0q-36,0-66.5,18.5T84.5,67T66,134V282L23,308V422l43,24V586q0,37 18.5,67.5t49,48.5T200,720h48V600H204q-7,0-12.5-5.5T186,582V416l-64-52l64-52V138q0-8 5.5-13.5T204,119h44V0H200Z" />
      <glyph unicode="|" glyph-name="gid171" horiz-adv-x="214" d="M54-107V822H173V-107H54Z" />
      <glyph unicode="}" glyph-name="gid139" horiz-adv-x="289" d="M51,0V119H95q8,0 13.5,5.5T114,138V311l63,53l-63,51V582q0,7-5.5,12.5T95,600H51V720H99q37,0 67.5-18T215,653.5T233,586V446l43-25V308l-43-27V134q0-37-18.5-67T166,18.5T99,0H51Z" />
      <glyph unicode="~" glyph-name="gid165" horiz-adv-x="404" d="M299,227q-36,0-98,33q-63,32-101,32T24,268v87q41,16 79,16q39,0 108-32q68-34 93-34q32,0 78,27V246q-48-19-83-19Z" />
      <glyph unicode="&#xa0;" glyph-name="gid153" horiz-adv-x="298" />
      <glyph unicode="&#xa1;" glyph-name="gid128" horiz-adv-x="210" d="M53,0V522H172V0H53Zm0,597V716H172V597H53Z" />
      <glyph unicode="&#xa2;" glyph-name="gid155" horiz-adv-x="636" d="M289-107V0H167Q130,0 99.5,18.5T51,67T33,134V456q0,37 18,67.5T99.5,572T167,590H289V715H409V590H621V470H409V119H621V0H409V-107H289ZM171,119H289V470H171q-8,0-13.5-5.5T152,451V138q0-8 5.5-13.5T171,119Z" />
      <glyph unicode="&#xa3;" glyph-name="gid157" horiz-adv-x="734" d="M39,0V119h97V299H39V418h97V586q0,37 18.5,67.5t49,48.5T270,720H551q37,0 67.5-18T667,653.5T685,586V549H565v38q0,7-5.5,12.5T546,605H274q-7,0-12.5-5.5T256,587V418H582V299H256V119H685V0H39Z" />
      <glyph unicode="&#xa8;" glyph-name="gid179" horiz-adv-x="519" d="M298,640V760H419V640H298Zm-198,0V760H220V640H100Z" />
      <glyph unicode="&#xaf;" glyph-name="gid185" horiz-adv-x="500" d="M87,638v82H411V638H87Z" />
      <glyph unicode="&#xb0;" glyph-name="gid170" horiz-adv-x="439" d="M180,370q-38,0-68,18.5t-48.5,49T45,505v77q0,38 18.5,68T112,698t68,18h87q36,0 66.5-18t49-48T401,582V505q0-37-18.5-67.5t-49-49T267,370H180ZM163,471H282q8,0 13.5,5.5T301,489V597q0,8-5.5,13.5T282,616H163q-7,0-12.5-5.5T145,597V489q0-7 5.5-12.5T163,471Z" />
      <glyph unicode="&#xb4;" glyph-name="gid181" horiz-adv-x="213" d="M43,640L87,813H207L164,640H43Z" />
      <glyph unicode="&#xb6;" glyph-name="gid169" horiz-adv-x="833" d="M444,0V250H190q-37,0-67.5,18.5T74,317.5T56,384V578q0,36 18,67t48.5,49.5T190,713H783V0H664V250H564V0H444ZM194,370H444V592H194q-8,0-13.5-5.5T175,574V389q0-8 5.5-13.5T194,370Zm370,0H664V592H564V370Z" />
      <glyph unicode="&#xb8;" glyph-name="gid186" horiz-adv-x="213" d="M24-148L70,15H190L145-148H24Z" />
      <glyph unicode="&#xbf;" glyph-name="gid130" horiz-adv-x="675" d="M153,0Q116,0 85.5,18.5T37,67T19,134V313q0,38 18,68t48.5,48.5T153,448H401q8,0 13.5,5t5.5,13v62H539V462q0-38-18-68t-48-48.5T405,327H157q-8,0-13.5-5.5T138,309V138q0-8 5.5-13.5T157,119H648L649,0H153ZM420,597V716H539V597H420Z" />
      <glyph unicode="&#xc0;" glyph-name="gid5" horiz-adv-x="836" d="M58,0V585q0,37 18,68t49,49t68,18H643q37,0 67.5-18t49-49T778,585V0H657V247H178V0H58ZM178,367H657V581q0,8-5.5,13T638,599H196q-7,0-12.5-5T178,581V367ZM365,780L322,953H443l43-173H365Z" />
      <glyph unicode="&#xc1;" glyph-name="gid2" horiz-adv-x="836" d="M58,0V585q0,37 18,68t49,49t68,18H643q37,0 67.5-18t49-49T778,585V0H657V247H178V0H58ZM178,367H657V581q0,8-5.5,13T638,599H196q-7,0-12.5-5T178,581V367ZM351,780l44,173H515L472,780H351Z" />
      <glyph unicode="&#xc2;" glyph-name="gid3" horiz-adv-x="836" d="M58,0V585q0,37 18,68t49,49t68,18H643q37,0 67.5-18t49-49T778,585V0H657V247H178V0H58ZM178,367H657V581q0,8-5.5,13T638,599H196q-7,0-12.5-5T178,581V367ZM278,794l96,162h90l97-162H461l-43,73l-41-73H278Z" />
      <glyph unicode="&#xc3;" glyph-name="gid7" horiz-adv-x="836" d="M58,0V585q0,37 18,68t49,49t68,18H643q37,0 67.5-18t49-49T778,585V0H657V247H178V0H58ZM178,367H657V581q0,8-5.5,13T638,599H196q-7,0-12.5-5T178,581V367ZM515,803q-55,0-116,43q-59,43-102,43H239v92h74q49,0 106-44q58-44 104-44h74V803H515Z" />
      <glyph unicode="&#xc4;" glyph-name="gid4" horiz-adv-x="836" d="M58,0V585q0,37 18,68t49,49t68,18H643q37,0 67.5-18t49-49T778,585V0H657V247H178V0H58ZM178,367H657V581q0,8-5.5,13T638,599H196q-7,0-12.5-5T178,581V367ZM457,780V900H578V780H457Zm-198,0V900H379V780H259Z" />
      <glyph unicode="&#xc5;" glyph-name="gid6" horiz-adv-x="836" d="M58,0V585q0,37 18,68t49,49t68,18H643q37,0 67.5-18t49-49T778,585V0H657V247H178V0H58ZM178,367H657V581q0,8-5.5,13T638,599H196q-7,0-12.5-5T178,581V367ZM392,790q-27,0-47,19t-20,46v51q0,27 20,46.5T392,972h53q27,0 46.5-19.5T511,906V855q0-27-19.5-46T445,790H392Zm-3,55h58q2,0 3,1.5t1,3.5v57q0,2-1,3.5t-3,1.5H389q-2,0-3-1.5t-1-3.5V850q0-2 1-3.5t3-1.5Z" />
      <glyph unicode="&#xc6;" glyph-name="gid8" horiz-adv-x="1375" d="M54,0V585q0,37 18.5,68t49,49T189,720H1315V599H774V421h435V299H774V121h541V0H654V247H175V0H54ZM175,367H654V581q0,8-5.5,13T636,599H194q-8,0-13.5-5T175,581V367Z" />
      <glyph unicode="&#xc7;" glyph-name="gid11" horiz-adv-x="822" d="M191,0q-37,0-68,18T74,67T56,135V585q0,37 18,68t49,49t68,18H774V599H212q-16,0-26-9.5T176,564V156q0-16 10-25.5t26-9.5H774V0H191ZM346-148L392,15H512L467-148H346Z" />
      <glyph unicode="&#xc8;" glyph-name="gid17" horiz-adv-x="766" d="M58,0V720H719V599H179V421H614V299H179V121H719V0H58ZM345,780L302,953H423l43-173H345Z" />
      <glyph unicode="&#xc9;" glyph-name="gid14" horiz-adv-x="766" d="M58,0V720H719V599H179V421H614V299H179V121H719V0H58ZM331,780l44,173H495L452,780H331Z" />
      <glyph unicode="&#xca;" glyph-name="gid15" horiz-adv-x="766" d="M58,0V720H719V599H179V421H614V299H179V121H719V0H58ZM258,794l96,162h90l97-162H441l-43,73l-41-73H258Z" />
      <glyph unicode="&#xcb;" glyph-name="gid16" horiz-adv-x="766" d="M58,0V720H719V599H179V421H614V299H179V121H719V0H58ZM437,780V900H558V780H437Zm-198,0V900H359V780H239Z" />
      <glyph unicode="&#xcc;" glyph-name="gid25" horiz-adv-x="214" d="M48,0V720H167V0H48Zm8,780L13,953H134l43-173H56Z" />
      <glyph unicode="&#xcd;" glyph-name="gid22" horiz-adv-x="214" d="M48,0V720H167V0H48ZM42,780L86,953H206L163,780H42Z" />
      <glyph unicode="&#xce;" glyph-name="gid23" horiz-adv-x="214" d="M48,0V720H167V0H48ZM-31,794L65,956h90l97-162H152l-43,73L68,794H-31Z" />
      <glyph unicode="&#xcf;" glyph-name="gid24" horiz-adv-x="214" d="M48,0V720H167V0H48ZM148,780V900H269V780H148Zm-198,0V900H70V780H-50Z" />
      <glyph unicode="&#xd1;" glyph-name="gid31" horiz-adv-x="832" d="M56,0V720H193L655,170V720H776V0H639L176,551V0H56ZM500,803q-55,0-116,43q-59,43-102,43H224v92h74q49,0 106-44q58-44 104-44h74V803H500Z" />
      <glyph unicode="&#xd2;" glyph-name="gid36" horiz-adv-x="828" d="M189,0q-37,0-68,18T72,67T54,135V585q0,37 18,68t49,49t68,18H639q37,0 67.5-18t49-49T774,585V135q0-37-18.5-68t-49-49T639,0H189Zm3,121H634q8,0 13.5,5t5.5,13V581q0,8-5.5,13T634,599H192q-7,0-12.5-5T174,581V139q0-8 5.5-13t12.5-5ZM361,780L318,953H439l43-173H361Z" />
      <glyph unicode="&#xd3;" glyph-name="gid33" horiz-adv-x="828" d="M189,0q-37,0-68,18T72,67T54,135V585q0,37 18,68t49,49t68,18H639q37,0 67.5-18t49-49T774,585V135q0-37-18.5-68t-49-49T639,0H189Zm3,121H634q8,0 13.5,5t5.5,13V581q0,8-5.5,13T634,599H192q-7,0-12.5-5T174,581V139q0-8 5.5-13t12.5-5ZM347,780l44,173H511L468,780H347Z" />
      <glyph unicode="&#xd4;" glyph-name="gid34" horiz-adv-x="828" d="M189,0q-37,0-68,18T72,67T54,135V585q0,37 18,68t49,49t68,18H639q37,0 67.5-18t49-49T774,585V135q0-37-18.5-68t-49-49T639,0H189Zm3,121H634q8,0 13.5,5t5.5,13V581q0,8-5.5,13T634,599H192q-7,0-12.5-5T174,581V139q0-8 5.5-13t12.5-5Zm82,673l96,162h90l97-162H457l-43,73l-41-73H274Z" />
      <glyph unicode="&#xd5;" glyph-name="gid37" horiz-adv-x="828" d="M189,0q-37,0-68,18T72,67T54,135V585q0,37 18,68t49,49t68,18H639q37,0 67.5-18t49-49T774,585V135q0-37-18.5-68t-49-49T639,0H189Zm3,121H634q8,0 13.5,5t5.5,13V581q0,8-5.5,13T634,599H192q-7,0-12.5-5T174,581V139q0-8 5.5-13t12.5-5ZM511,803q-55,0-116,43q-59,43-102,43H235v92h74q49,0 106-44q58-44 104-44h74V803H511Z" />
      <glyph unicode="&#xd6;" glyph-name="gid35" horiz-adv-x="828" d="M189,0q-37,0-68,18T72,67T54,135V585q0,37 18,68t49,49t68,18H639q37,0 67.5-18t49-49T774,585V135q0-37-18.5-68t-49-49T639,0H189Zm3,121H634q8,0 13.5,5t5.5,13V581q0,8-5.5,13T634,599H192q-7,0-12.5-5T174,581V139q0-8 5.5-13t12.5-5ZM453,780V900H574V780H453Zm-198,0V900H375V780H255Z" />
      <glyph unicode="&#xd7;" glyph-name="gid160" horiz-adv-x="546" d="M53,88l3,30L196,300L54,483l-1,28H187l86-117l86,117H493l-2-28L350,300L490,118l3-30H359L273,205L187,88H53Z" />
      <glyph unicode="&#xd9;" glyph-name="gid48" horiz-adv-x="828" d="M189,0q-37,0-68,18T72,67T54,135V720H174V139q0-8 5.5-13t12.5-5H634q8,0 13.5,5t5.5,13V720H774V135q0-37-18.5-68t-49-49T639,0H189ZM361,780L318,953H439l43-173H361Z" />
      <glyph unicode="&#xda;" glyph-name="gid45" horiz-adv-x="828" d="M189,0q-37,0-68,18T72,67T54,135V720H174V139q0-8 5.5-13t12.5-5H634q8,0 13.5,5t5.5,13V720H774V135q0-37-18.5-68t-49-49T639,0H189ZM347,780l44,173H511L468,780H347Z" />
      <glyph unicode="&#xdb;" glyph-name="gid46" horiz-adv-x="828" d="M189,0q-37,0-68,18T72,67T54,135V720H174V139q0-8 5.5-13t12.5-5H634q8,0 13.5,5t5.5,13V720H774V135q0-37-18.5-68t-49-49T639,0H189Zm85,794l96,162h90l97-162H457l-43,73l-41-73H274Z" />
      <glyph unicode="&#xdc;" glyph-name="gid47" horiz-adv-x="828" d="M189,0q-37,0-68,18T72,67T54,135V720H174V139q0-8 5.5-13t12.5-5H634q8,0 13.5,5t5.5,13V720H774V135q0-37-18.5-68t-49-49T639,0H189ZM453,780V900H574V780H453Zm-198,0V900H375V780H255Z" />
      <glyph unicode="&#xdd;" glyph-name="gid53" horiz-adv-x="806" d="M342,0V270L10,720H152L403,404L652,720H796L463,269V0H342Zm-7,780l44,173H499L456,780H335Z" />
      <glyph unicode="&#xdf;" glyph-name="gid98" horiz-adv-x="833" d="M57,0V586q0,37 18,67.5T123.5,702T191,720H639q32,0 60.5-15t48-40.5T773,609V442q0-38-23-74q23-35 23-74V134q0-37-18-67T706.5,18.5T639,0H278V119H636q7,0 12.5,5.5T654,138V289q0,8-5.5,13.5T636,308H278V417H636q7,0 12.5,5.5T654,436V581q0,7-5.5,12.5T636,599H195q-8,0-13.5-5.5T176,581V0H57Z" />
      <glyph unicode="&#xe0;" glyph-name="gid59" horiz-adv-x="694" d="M186,0q-37,0-67.5,18.5T70,67T52,134V350H522v92q0,8-5.5,13.5T503,461H52V580H507q38,0 68-18.5T623,513t18-67V0H186Zm4,119H522V241H171V138q0-8 5.5-13.5T190,119ZM314,640L271,813H392l43-173H314Z" />
      <glyph unicode="&#xe1;" glyph-name="gid56" horiz-adv-x="694" d="M186,0q-37,0-67.5,18.5T70,67T52,134V350H522v92q0,8-5.5,13.5T503,461H52V580H507q38,0 68-18.5T623,513t18-67V0H186Zm4,119H522V241H171V138q0-8 5.5-13.5T190,119ZM300,640l44,173H464L421,640H300Z" />
      <glyph unicode="&#xe2;" glyph-name="gid57" horiz-adv-x="694" d="M186,0q-37,0-67.5,18.5T70,67T52,134V350H522v92q0,8-5.5,13.5T503,461H52V580H507q38,0 68-18.5T623,513t18-67V0H186Zm4,119H522V241H171V138q0-8 5.5-13.5T190,119Zm37,535l96,162h90l97-162H410l-43,73l-41-73H227Z" />
      <glyph unicode="&#xe3;" glyph-name="gid61" horiz-adv-x="694" d="M186,0q-37,0-67.5,18.5T70,67T52,134V350H522v92q0,8-5.5,13.5T503,461H52V580H507q38,0 68-18.5T623,513t18-67V0H186Zm4,119H522V241H171V138q0-8 5.5-13.5T190,119ZM464,663q-55,0-116,43q-59,43-102,43H188v92h74q49,0 106-44q58-44 104-44h74V663H464Z" />
      <glyph unicode="&#xe4;" glyph-name="gid58" horiz-adv-x="694" d="M186,0q-37,0-67.5,18.5T70,67T52,134V350H522v92q0,8-5.5,13.5T503,461H52V580H507q38,0 68-18.5T623,513t18-67V0H186Zm4,119H522V241H171V138q0-8 5.5-13.5T190,119ZM406,640V760H527V640H406Zm-198,0V760H328V640H208Z" />
      <glyph unicode="&#xe5;" glyph-name="gid60" horiz-adv-x="694" d="M186,0q-37,0-67.5,18.5T70,67T52,134V350H522v92q0,8-5.5,13.5T503,461H52V580H507q38,0 68-18.5T623,513t18-67V0H186Zm4,119H522V241H171V138q0-8 5.5-13.5T190,119ZM341,650q-27,0-47,19t-20,46v51q0,27 20,46.5T341,832h53q27,0 46.5-19.5T460,766V715q0-27-19.5-46T394,650H341Zm-3,55h58q2,0 3,1.5t1,3.5v57q0,2-1,3.5t-3,1.5H338q-2,0-3-1.5t-1-3.5V710q0-2 1-3.5t3-1.5Z" />
      <glyph unicode="&#xe6;" glyph-name="gid62" horiz-adv-x="1178" d="M186,0q-37,0-67.5,18.5T70,67T52,134V350H522v92q0,8-5.5,13.5T504,461H52V580H978q38,0 68-18.5t48-48.5t18-67V230H642V136q1-7 6.5-12t12.5-5h451V0H186Zm4,119H522V241H172V138q0-8 5.5-13.5T190,119ZM642,339H993V442q0,8-5.5,13.5T974,461H661q-8,0-13.5-5.5T642,442V339Z" />
      <glyph unicode="&#xe7;" glyph-name="gid65" horiz-adv-x="695" d="M185,0q-37,0-67,18.5T69.5,67T51,134V446q0,37 18.5,67T118,561.5T185,580H639V461H189q-8,0-13.5-5.5T170,442V138q0-8 5.5-13.5T189,119H640V0H185Zm84-148L315,15H435L390-148H269Z" />
      <glyph unicode="&#xe8;" glyph-name="gid71" horiz-adv-x="692" d="M185,0q-37,0-67,18.5T69.5,67T51,134V446q0,37 18.5,67T118,561.5T185,580H506q38,0 68-18.5T622,513t18-67V230H170V138q0-8 5.5-13.5T189,119H640V0H185ZM170,339H521V442q0,8-5.5,13.5T502,461H189q-8,0-13.5-5.5T170,442V339ZM293,640L250,813H371l43-173H293Z" />
      <glyph unicode="&#xe9;" glyph-name="gid68" horiz-adv-x="692" d="M185,0q-37,0-67,18.5T69.5,67T51,134V446q0,37 18.5,67T118,561.5T185,580H506q38,0 68-18.5T622,513t18-67V230H170V138q0-8 5.5-13.5T189,119H640V0H185ZM170,339H521V442q0,8-5.5,13.5T502,461H189q-8,0-13.5-5.5T170,442V339ZM279,640l44,173H443L400,640H279Z" />
      <glyph unicode="&#xea;" glyph-name="gid69" horiz-adv-x="692" d="M185,0q-37,0-67,18.5T69.5,67T51,134V446q0,37 18.5,67T118,561.5T185,580H506q38,0 68-18.5T622,513t18-67V230H170V138q0-8 5.5-13.5T189,119H640V0H185ZM170,339H521V442q0,8-5.5,13.5T502,461H189q-8,0-13.5-5.5T170,442V339Zm35,315l96,162h90l97-162H388l-43,73l-41-73H205Z" />
      <glyph unicode="&#xeb;" glyph-name="gid70" horiz-adv-x="692" d="M185,0q-37,0-67,18.5T69.5,67T51,134V446q0,37 18.5,67T118,561.5T185,580H506q38,0 68-18.5T622,513t18-67V230H170V138q0-8 5.5-13.5T189,119H640V0H185ZM170,339H521V442q0,8-5.5,13.5T502,461H189q-8,0-13.5-5.5T170,442V339ZM385,640V760H506V640H385Zm-198,0V760H307V640H187Z" />
      <glyph unicode="&#xec;" glyph-name="gid80" horiz-adv-x="214" d="M48,0V580H167V0H48Zm6,640L11,813H132l43-173H54Z" />
      <glyph unicode="&#xed;" glyph-name="gid77" horiz-adv-x="214" d="M48,0V580H167V0H48ZM40,640L84,813H204L161,640H40Z" />
      <glyph unicode="&#xee;" glyph-name="gid78" horiz-adv-x="214" d="M48,0V580H167V0H48ZM-33,654L63,816h90l97-162H150l-43,73L66,654H-33Z" />
      <glyph unicode="&#xef;" glyph-name="gid79" horiz-adv-x="214" d="M48,0V580H167V0H48Zm98,640V760H267V640H146Zm-198,0V760H68V640H-52Z" />
      <glyph unicode="&#xf1;" glyph-name="gid86" horiz-adv-x="696" d="M54,0V580H510q36,0 66.5-18.5T625,513t18-67V0H524V442q0,8-5.5,13.5T506,461H192q-7,0-13-5.5T173,442V0H54ZM438,663q-55,0-116,43q-59,43-102,43H162v92h74q49,0 106-44q58-44 104-44h74V663H438Z" />
      <glyph unicode="&#xf2;" glyph-name="gid91" horiz-adv-x="692" d="M185,0q-37,0-67,18.5T69.5,67T51,134V446q0,37 18.5,67T118,561.5T185,580H506q38,0 68-18.5T622,513t18-67V134q0-37-18-67T574,18.5T506,0H185Zm4,119H502q8,0 13.5,5.5T521,138V442q0,8-5.5,13.5T502,461H189q-8,0-13.5-5.5T170,442V138q0-8 5.5-13.5T189,119ZM292,638L249,811H370l43-173H292Z" />
      <glyph unicode="&#xf3;" glyph-name="gid88" horiz-adv-x="692" d="M185,0q-37,0-67,18.5T69.5,67T51,134V446q0,37 18.5,67T118,561.5T185,580H506q38,0 68-18.5T622,513t18-67V134q0-37-18-67T574,18.5T506,0H185Zm4,119H502q8,0 13.5,5.5T521,138V442q0,8-5.5,13.5T502,461H189q-8,0-13.5-5.5T170,442V138q0-8 5.5-13.5T189,119Zm89,519l44,173H442L399,638H278Z" />
      <glyph unicode="&#xf4;" glyph-name="gid89" horiz-adv-x="692" d="M185,0q-37,0-67,18.5T69.5,67T51,134V446q0,37 18.5,67T118,561.5T185,580H506q38,0 68-18.5T622,513t18-67V134q0-37-18-67T574,18.5T506,0H185Zm4,119H502q8,0 13.5,5.5T521,138V442q0,8-5.5,13.5T502,461H189q-8,0-13.5-5.5T170,442V138q0-8 5.5-13.5T189,119Zm16,533l96,162h90l97-162H388l-43,73l-41-73H205Z" />
      <glyph unicode="&#xf5;" glyph-name="gid92" horiz-adv-x="692" d="M185,0q-37,0-67,18.5T69.5,67T51,134V446q0,37 18.5,67T118,561.5T185,580H506q38,0 68-18.5T622,513t18-67V134q0-37-18-67T574,18.5T506,0H185Zm4,119H502q8,0 13.5,5.5T521,138V442q0,8-5.5,13.5T502,461H189q-8,0-13.5-5.5T170,442V138q0-8 5.5-13.5T189,119ZM442,661q-55,0-116,43q-59,43-102,43H166v92h74q49,0 106-44q58-44 104-44h74V661H442Z" />
      <glyph unicode="&#xf6;" glyph-name="gid90" horiz-adv-x="692" d="M185,0q-37,0-67,18.5T69.5,67T51,134V446q0,37 18.5,67T118,561.5T185,580H506q38,0 68-18.5T622,513t18-67V134q0-37-18-67T574,18.5T506,0H185Zm4,119H502q8,0 13.5,5.5T521,138V442q0,8-5.5,13.5T502,461H189q-8,0-13.5-5.5T170,442V138q0-8 5.5-13.5T189,119ZM384,638V758H505V638H384Zm-198,0V758H306V638H186Z" />
      <glyph unicode="&#xf7;" glyph-name="gid161" horiz-adv-x="514" d="M12,247V367H495V247H12ZM198,0V120H318V0H198Zm0,479V599H318V479H198Z" />
      <glyph unicode="&#xf9;" glyph-name="gid104" horiz-adv-x="695" d="M187,0q-37,0-67.5,18.5T71,67T53,134V580H172V138q0-8 5.5-13.5T191,119H504q8,0 13.5,5.5T523,138V580H642V134q0-37-18-67T576,18.5T508,0H187ZM295,639L252,812H373l43-173H295Z" />
      <glyph unicode="&#xfa;" glyph-name="gid101" horiz-adv-x="695" d="M187,0q-37,0-67.5,18.5T71,67T53,134V580H172V138q0-8 5.5-13.5T191,119H504q8,0 13.5,5.5T523,138V580H642V134q0-37-18-67T576,18.5T508,0H187Zm94,639l44,173H445L402,639H281Z" />
      <glyph unicode="&#xfb;" glyph-name="gid102" horiz-adv-x="695" d="M187,0q-37,0-67.5,18.5T71,67T53,134V580H172V138q0-8 5.5-13.5T191,119H504q8,0 13.5,5.5T523,138V580H642V134q0-37-18-67T576,18.5T508,0H187Zm20,653l96,162h90l97-162H390l-43,73l-41-73H207Z" />
      <glyph unicode="&#xfc;" glyph-name="gid103" horiz-adv-x="695" d="M187,0q-37,0-67.5,18.5T71,67T53,134V580H172V138q0-8 5.5-13.5T191,119H504q8,0 13.5,5.5T523,138V580H642V134q0-37-18-67T576,18.5T508,0H187ZM387,639V759H508V639H387Zm-198,0V759H309V639H189Z" />
      <glyph unicode="&#xfd;" glyph-name="gid109" horiz-adv-x="685" d="M141-218V-98H494q7,0 12.5,5.5T512-80V0H176q-36,0-66.5,18.5T60.5,67T42,134V578H161V138q0-8 5.5-13.5T180,119H494q7,0 12.5,5.5T512,138V578H631V-84q0-38-17.5-68t-48-48T498-218H141ZM269,640l44,173H433L390,640H269Z" />
      <glyph unicode="&#xff;" glyph-name="gid110" horiz-adv-x="685" d="M141-218V-98H494q7,0 12.5,5.5T512-80V0H176q-36,0-66.5,18.5T60.5,67T42,134V578H161V138q0-8 5.5-13.5T180,119H494q7,0 12.5,5.5T512,138V578H631V-84q0-38-17.5-68t-48-48T498-218H141ZM375,640V760H496V640H375Zm-198,0V760H297V640H177Z" />
      <glyph unicode="&#x2013;" glyph-name="gid143" horiz-adv-x="708" d="M54,235V354H653V235H54Z" />
      <glyph unicode="&#x2014;" glyph-name="gid144" horiz-adv-x="822" d="M54,235V354H765V235H54Z" />
      <glyph unicode="&#x2018;" glyph-name="gid148" horiz-adv-x="206" d="M34,468V581q0,32 15.5,59.5t42.5,47T153,714V468H34Z" />
      <glyph unicode="&#x2019;" glyph-name="gid149" horiz-adv-x="204" d="M54,468V713H173V601q0-32-15.5-59.5t-42.5-47T54,468Z" />
      <glyph unicode="&#x201c;" glyph-name="gid146" horiz-adv-x="417" d="M46,468V581q0,32 15.5,60t43,47T166,714V468H46Zm199,0V580q0,33 15.5,60.5T303,687t61,26V468H245Z" />
      <glyph unicode="&#x201d;" glyph-name="gid147" horiz-adv-x="417" d="M54,468V713H174V601q0-32-15.5-59.5t-43-47T54,468Zm199,0V713H372V601q0-32-15.5-59.5t-42.5-47T253,468Z" />
      <glyph unicode="&#x2022;" glyph-name="gid131" horiz-adv-x="371" d="M173,301q-48,0-48,47v20q0,48 48,48h23q49,0 49-48V348q0-47-49-47H173Z" />
    </font>
</defs>
</svg>
